<svg width="150" height="151" fill="none" xmlns="http://www.w3.org/2000/svg"><g clip-path="url(#clip0)"><path d="M100.162 43.81c.933-.874.933-2.332.058-3.264-.35-.35-.816-.583-1.341-.7L85.35 37.863a2.337 2.337 0 01-1.749-1.284l-6.064-12.245c-.583-1.166-1.924-1.632-3.09-1.049a2.286 2.286 0 00-1.05 1.05L67.334 36.58c-.35.7-.991 1.166-1.75 1.284l-13.527 2.04c-1.284.175-2.158 1.341-1.925 2.624.058.524.292.991.7 1.341l9.796 9.563c.525.525.816 1.282.641 2.04l-2.332 13.47c-.233 1.284.642 2.45 1.866 2.682.525.06.991 0 1.458-.232l12.128-6.356c.7-.35 1.458-.35 2.158 0l12.128 6.356a2.266 2.266 0 003.09-.992c.234-.466.292-.99.234-1.458l-2.332-13.47c-.118-.758.116-1.515.64-2.04l9.855-9.621z" fill="#F4DA00"/><path d="M93.048 50.75l-2.682 2.624c-.525.525-.817 1.282-.641 2.04l2.332 13.47c.234 1.282-.641 2.449-1.865 2.682-.525.058-.992 0-1.458-.233l-12.187-6.355c-.409-.176-.816-.292-1.224-.234v16.91l48.455-18.31-30.73-12.594zM74.389 64.979L62.26 71.334a2.265 2.265 0 01-3.09-.991c-.234-.467-.292-.99-.234-1.458l2.332-13.47c.117-.758-.116-1.515-.641-2.04l-2.798-2.741-30.846 12.654 48.339 18.31v-16.91c-.351.057-.643.115-.934.29z" fill="#A35D2E"/><path d="M148.034 82.004l-48.513 18.31-24.198-18.717 48.455-18.31 24.256 18.717z" fill="#C1814C"/><path d="M99.521 100.314L75.323 81.597v67.172l48.455-18.309V91.159l-24.257 9.155z" fill="#B26E3B"/><path d="M2.727 82.004l48.513 18.31L75.44 81.597l-48.455-18.31L2.727 82.004z" fill="#C1814C"/><path d="M51.24 100.314l-24.256-9.155v39.301l48.455 18.309V81.597L51.24 100.314z" fill="#B26E3B"/><path d="M96.546 16.406a6.338 6.338 0 01-5.072-5.073c0-.059-.058-.117-.116-.059-.06 0-.06.06-.06.06a6.335 6.335 0 01-5.072 5.072c-.058 0-.116.058-.058.116 0 .06.058.06.058.06a6.333 6.333 0 015.073 5.072c0 .058.059.116.117.058.058 0 .058-.058.058-.058a6.335 6.335 0 015.072-5.073c.06 0 .118-.06.06-.117l-.06-.058z" fill="#F75C64"/><path d="M49.55 28.126h-5.015a1.443 1.443 0 01-1.458-1.457c0-.817.641-1.458 1.458-1.458h5.014c.817 0 1.458.641 1.458 1.458 0 .816-.641 1.457-1.458 1.457z" fill="#6DCC6D"/><path d="M47.042 30.634a1.443 1.443 0 01-1.457-1.458v-5.014c0-.817.64-1.458 1.457-1.458.816 0 1.458.641 1.458 1.458v5.014c0 .817-.642 1.458-1.458 1.458z" fill="#6DCC6D"/><path d="M122.145 44.336h-5.015a1.443 1.443 0 01-1.457-1.457c0-.817.641-1.458 1.457-1.458h5.015c.816 0 1.457.641 1.457 1.458 0 .816-.699 1.457-1.457 1.457z" fill="#60BAE2"/><path d="M119.638 46.903a1.445 1.445 0 01-1.458-1.458v-5.016c0-.815.642-1.457 1.458-1.457s1.458.642 1.458 1.457v5.016c-.059.757-.7 1.458-1.458 1.458z" fill="#60BAE2"/><path d="M39.111 45.386c.41 0 .759.175 1.05.409a.816.816 0 01.176.233.44.44 0 01.116.232c.058.06.058.176.058.292 0 .117.058.175.058.291 0 .118 0 .176-.058.292 0 .117-.058.175-.058.292-.058.117-.058.175-.116.233-.06.058-.117.175-.176.234a1.433 1.433 0 01-1.573.291c-.06-.058-.176-.058-.234-.116-.058-.06-.175-.117-.233-.175a.816.816 0 01-.176-.234.44.44 0 01-.116-.233c-.058-.059-.058-.175-.058-.292v-.291-.292c0-.116.058-.174.058-.292.058-.116.058-.174.116-.232.06-.06.117-.175.176-.233.058-.059.116-.118.233-.176a.44.44 0 01.234-.116c.116-.058.174-.058.291-.058.058-.06.116-.06.232-.06zM130.425 31.042c.408 0 .758.175 1.049.409.058.058.118.116.176.232.058.06.116.176.116.234.058.058.058.175.058.291 0 .117.059.176.059.292 0 .117 0 .175-.059.291 0 .118-.058.176-.058.292-.058.117-.058.175-.116.233-.058.058-.118.176-.176.234a1.433 1.433 0 01-1.574.291c-.058-.058-.175-.058-.233-.117-.058-.058-.176-.116-.234-.174a.81.81 0 01-.174-.234.439.439 0 01-.117-.233c-.058-.058-.058-.174-.058-.292V32.5v-.292c0-.116.058-.174.058-.291.058-.117.058-.175.117-.234.058-.058.116-.174.174-.232a.793.793 0 01.234-.175.442.442 0 01.233-.117c.116-.059.175-.059.292-.059.058 0 .174-.058.233-.058zM17.245 95.59c.41 0 .759.175 1.05.409a.814.814 0 01.176.233.439.439 0 01.116.234c.058.058.058.174.058.291 0 .116.058.174 0 .292v.291c0 .116-.058.174-.058.292-.058.116-.058.174-.116.232-.06.06-.117.175-.175.233a1.43 1.43 0 01-1.574.292c-.06-.058-.176-.058-.234-.116-.058-.058-.175-.117-.233-.175-.058-.059-.116-.117-.176-.234a.44.44 0 01-.116-.232c-.058-.06-.058-.176-.058-.292v-.291-.292c0-.117.058-.175.058-.291.058-.118.058-.176.116-.234.06-.058.118-.175.176-.233a.816.816 0 01.233-.176.44.44 0 01.234-.116c.116-.058.174-.058.291-.058.058-.058.174-.058.232-.058z" fill="#FFAE2C"/><path d="M82.436.954c.408 0 .759.175 1.05.408.058.059.116.117.174.233a.446.446 0 01.118.234c.058.116.058.175.058.291 0 .116.058.176.058.292 0 .116 0 .175-.058.291 0 .117-.058.176-.058.292-.06.116-.06.175-.118.233-.058.058-.116.175-.174.234a1.437 1.437 0 01-1.575.291c-.058-.059-.174-.059-.233-.117-.058-.058-.174-.116-.233-.174-.059-.06-.117-.117-.175-.234a.443.443 0 01-.116-.233c-.06-.058-.06-.175-.06-.292v-.291-.292c0-.116.06-.175.06-.291.058-.116.058-.176.116-.234.058-.058.116-.174.175-.233.059-.058.117-.116.233-.174a.45.45 0 01.233-.118c.117-.058.176-.058.292-.058.058-.058.117-.058.233-.058z" fill="#FCD770"/><path d="M75.323 83.054a1.444 1.444 0 01-1.458-1.457v-16.91c0-.759.583-1.4 1.34-1.458.701-.06 1.4.116 2.041.408l12.13 6.356c.407.233.932.058 1.165-.35.059-.175.117-.35.059-.525l-2.333-13.47c-.233-1.225.175-2.449 1.108-3.324l2.682-2.623a1.433 1.433 0 011.574-.292l30.73 12.537c.757.291 1.108 1.166.817 1.924-.176.35-.467.641-.817.817L75.847 82.995c-.174.06-.35.06-.524.06zm1.458-16.326v12.769l43.031-16.268-26.413-10.787-2.041 1.981a.863.863 0 00-.233.759l2.332 13.47c.35 2.04-1.05 4.023-3.09 4.372-.818.118-1.633 0-2.391-.35L76.78 66.729z" fill="#231F20"/><path d="M89.725 73.082c-.583 0-1.224-.174-1.75-.408L75.848 66.26c-.233-.116-.524-.116-.816 0l-12.129 6.356a3.74 3.74 0 01-5.072-1.575 3.433 3.433 0 01-.35-2.39l2.332-13.47a.863.863 0 00-.233-.758l-9.796-9.562a3.715 3.715 0 01-.058-5.307c.583-.583 1.34-.99 2.157-1.107l13.528-1.983a.903.903 0 00.641-.467l6.065-12.245c.933-1.865 3.207-2.624 5.014-1.69.758.35 1.34.991 1.692 1.69l6.063 12.245c.117.234.35.41.642.467l13.528 1.983c2.04.292 3.498 2.215 3.206 4.256-.116.817-.525 1.575-1.108 2.158l-9.795 9.562a.863.863 0 00-.233.758l2.332 13.47c.35 2.04-1.05 4.023-3.09 4.373-.234 0-.409.058-.642.058zM75.497 63.23c.583 0 1.224.174 1.75.407l12.128 6.356c.408.234.933.058 1.166-.35.059-.175.117-.35.059-.524l-2.333-13.47c-.233-1.225.176-2.45 1.108-3.324l9.796-9.563a.844.844 0 000-1.224c-.117-.116-.292-.234-.466-.234l-13.529-1.981c-1.224-.176-2.273-.934-2.856-2.041l-6.064-12.245c-.234-.409-.7-.583-1.167-.409-.175.058-.291.233-.408.409L68.617 37.28c-.525 1.107-1.633 1.865-2.857 2.04L52.23 41.304c-.465.06-.757.525-.699.992 0 .174.116.35.234.466l9.795 9.563a3.905 3.905 0 011.108 3.324l-2.332 13.47c-.059.466.233.874.7.99.174.059.35 0 .524-.058l12.129-6.355c.583-.292 1.166-.466 1.807-.466z" fill="#231F20"/><path d="M75.323 83.053c-.176 0-.351-.059-.525-.117l-48.34-18.31c-.758-.29-1.107-1.106-.874-1.865.116-.35.408-.699.817-.816l30.787-12.653a1.433 1.433 0 011.575.291l2.798 2.74a3.905 3.905 0 011.108 3.325l-2.332 13.47c-.059.465.233.874.7.99.174.058.35 0 .524-.058l12.129-6.356c.467-.233.932-.408 1.457-.408.817-.058 1.516.525 1.574 1.34v17.028c.06.757-.64 1.4-1.398 1.4zM30.948 63.228l42.858 16.268V66.9L62.96 72.616a3.74 3.74 0 01-5.072-1.575 3.426 3.426 0 01-.35-2.39l2.333-13.47a.866.866 0 00-.234-.758l-2.099-2.041-26.59 10.846z" fill="#231F20"/><path d="M99.521 101.771c-.35 0-.642-.118-.874-.292L74.389 82.762c-.641-.467-.757-1.4-.292-2.04.176-.234.41-.352.643-.468l48.513-18.31a1.374 1.374 0 011.4.234l24.256 18.717c.641.467.759 1.4.292 2.041-.176.234-.408.35-.642.467l-48.514 18.31c-.174.058-.35.058-.524.058zm-21.283-19.71L99.754 98.68l45.307-17.084-21.517-16.618-45.306 17.084z" fill="#231F20"/><path d="M75.323 150.226a1.443 1.443 0 01-1.458-1.457V81.596c0-.816.641-1.457 1.458-1.457.35 0 .641.116.875.291l23.615 18.192 23.498-8.862c.759-.292 1.575.116 1.867.874.058.175.116.35.116.524v39.301c0 .583-.35 1.166-.933 1.342L75.847 150.11c-.174.058-.35.116-.524.116zM76.78 84.57v62.1l45.539-17.202V93.316l-22.275 8.397c-.466.174-.99.116-1.398-.233L76.78 84.57z" fill="#231F20"/><path d="M51.24 101.771c-.175 0-.35-.058-.525-.117L2.202 83.345c-.758-.291-1.108-1.108-.874-1.866.116-.234.233-.466.465-.641L26.051 62.12c.408-.292.933-.41 1.399-.234l48.514 18.368c.757.291 1.108 1.108.875 1.865-.118.233-.234.467-.467.642L52.115 101.48a1.579 1.579 0 01-.875.291zM5.7 81.537l45.307 17.085 21.516-16.618-45.306-17.085L5.701 81.537z" fill="#231F20"/><path d="M75.439 150.226c-.175 0-.35-.058-.525-.116L26.401 131.8c-.583-.233-.933-.758-.933-1.341V91.158c0-.816.641-1.458 1.458-1.458.174 0 .35.06.524.117l23.499 8.863 23.615-18.192c.642-.467 1.574-.35 2.041.291.176.234.292.584.292.875v67.172c0 .759-.642 1.4-1.458 1.4zm-46.997-20.758l45.597 17.201v-62.1l-21.924 16.91c-.408.292-.933.408-1.4.234l-22.273-8.397v36.152z" fill="#231F20"/></g><defs><clipPath id="clip0"><path fill="#fff" transform="translate(.673 .954)" d="M0 0h149.273v149.273H0z"/></clipPath></defs></svg>