<svg width="175" height="131" fill="none" xmlns="http://www.w3.org/2000/svg"><path d="M82.665 114.467l.328-4.309.454-9.546.218-6.927c.013-.63.019-1.267.019-1.91 0-.472-.006-1.18-.019-2.126 1.552.024 2.813.036 3.782.036.776 0 1.855-.018 3.237-.055 1.381-.036 2.478-.054 3.29-.054 1.673 0 2.903.121 3.691.364a5.92 5.92 0 012.2 1.254 5.585 5.585 0 011.437 2.055c.363.897.545 1.86.545 2.89 0 1.564-.394 2.988-1.182 4.273-.775 1.273-1.854 2.225-3.236 2.855-1.382.63-2.915.945-4.6.945-.824 0-1.703-.085-2.636-.254a40.723 40.723 0 00-.91-3.546c.752.158 1.498.237 2.237.237 1.006 0 1.879-.152 2.618-.455a3.736 3.736 0 001.764-1.473c.436-.69.654-1.466.654-2.327 0-.509-.09-.976-.272-1.4a2.39 2.39 0 00-.8-1.018 2.799 2.799 0 00-1.146-.51c-.412-.096-1.006-.145-1.782-.145-.678 0-1.363.013-2.054.037-.691.024-1.303.036-1.837.036a247.484 247.484 0 00-.327 6.818l-.218 6.946c-.073 2.46-.11 4.266-.11 5.418 0 .436.007 1.067.02 1.891l-2.637-.037c-.34 0-1.249.013-2.728.037zm38.073-4.127c-.157.715-.382 2-.673 3.854-1.309.279-2.412.467-3.309.564-.897.097-1.8.145-2.709.145-1.588 0-3.012-.157-4.273-.473a7.745 7.745 0 01-3.29-1.727 7.627 7.627 0 01-2.091-3.109 11.103 11.103 0 01-.673-3.854c0-1.491.261-2.934.782-4.328.521-1.406 1.248-2.551 2.182-3.436a7.995 7.995 0 013.218-1.891c1.2-.376 2.454-.564 3.763-.564 1.237 0 2.412.158 3.528.473 1.115.303 2.048.806 2.8 1.51a6.928 6.928 0 011.745 2.545c.412.981.618 2.078.618 3.291 0 .569-.06 1.157-.182 1.763l-13.327.018c-.024.449-.036.806-.036 1.073 0 .812.139 1.558.418 2.236a4.627 4.627 0 001.218 1.728c.534.472 1.17.824 1.909 1.054.74.218 1.467.328 2.182.328.836 0 1.739-.091 2.709-.273.982-.182 2.146-.491 3.491-.927zm-11.745-7.346l8.509.018c0-.582-.018-1.012-.055-1.291a4.263 4.263 0 00-.254-.945 2.962 2.962 0 00-.509-.945 2.964 2.964 0 00-.764-.691 3.515 3.515 0 00-1.018-.419 4.864 4.864 0 00-1.218-.145c-.51 0-1.007.079-1.491.236a4.52 4.52 0 00-1.309.691c-.4.303-.728.643-.982 1.018a5.12 5.12 0 00-.546 1.091c-.121.34-.242.8-.363 1.382zm16.091 11.473l.527-8.637.145-5.018c.024-1.03.037-2.066.037-3.109 0-.182-.013-.757-.037-1.727 1.128.024 1.958.036 2.491.036.618 0 1.437-.012 2.455-.036l-.091 2.564c.46-.655.854-1.14 1.182-1.455a5.215 5.215 0 011.091-.836c.412-.23.866-.406 1.363-.528a6.422 6.422 0 011.527-.181c.485 0 .982.06 1.491.181 0 1.128.055 2.558.164 4.291-.715-.194-1.364-.29-1.946-.29-.703 0-1.327.109-1.872.327a4.18 4.18 0 00-1.455.963 5.16 5.16 0 00-1.054 1.582c-.231.509-.4 1.17-.509 1.982-.097.63-.182 1.709-.255 3.236a113.04 113.04 0 00-.091 4.509c0 .57.018 1.285.055 2.146a98.044 98.044 0 00-2.528-.037c-.751 0-1.648.013-2.69.037zm33.29 0a118.749 118.749 0 00-2.454-.037c-.715 0-1.527.013-2.437.037l.037-3.018c-.34.509-.637.921-.891 1.236a5.76 5.76 0 01-1 .909 5.938 5.938 0 01-1.346.709c-.484.17-1.042.309-1.672.418-.618.122-1.279.182-1.982.182-1.358 0-2.539-.194-3.546-.582-1.006-.4-1.806-1-2.4-1.8-.581-.8-.872-1.945-.872-3.436v-.382l.291-4.691.272-6.181c.013-.498.019-1.116.019-1.855 1.151.024 2.054.036 2.709.036.691 0 1.527-.012 2.509-.036l-.6 8.291c-.037.642-.067 1.188-.091 1.636a38.96 38.96 0 00-.018.946c0 .872.127 1.6.381 2.181.267.57.722 1.007 1.364 1.31a4.92 4.92 0 002.091.454c.703 0 1.37-.133 2-.4a4.147 4.147 0 001.455-1.018c.412-.436.757-1.024 1.036-1.764.206-.533.364-1.272.473-2.218.084-.667.163-1.812.236-3.436.097-1.964.164-3.958.2-5.982 1.2.024 2.115.036 2.745.036.716 0 1.522-.012 2.419-.036a287.453 287.453 0 00-.455 6.509 261.497 261.497 0 00-.327 6.436 314.14 314.14 0 00-.146 5.546zm-10.818-20.982l.673-1.673a107.496 107.496 0 011.054-2.745c.982.024 1.885.036 2.71.036.678 0 1.587-.012 2.727-.036-.812 1.006-1.418 1.794-1.818 2.364l-1.509 2.054a52.202 52.202 0 00-3.837 0zM87.474 52.545c.71-1.971-.158-4.18-2.287-5.047a4.466 4.466 0 00-1.42-.236c-1.734 0-2.917.867-3.627 2.523-1.183 2.918-3.864 5.362-8.122 7.333-4.179 1.972-8.2 2.918-11.985 2.918-1.893 0-2.287-.316-2.287-2.13 0-.472.079-1.182.237-2.128 1.183.236 2.523.315 3.864.315 5.204 0 9.225-1.656 12.143-5.046 2.917-3.39 3.706-7.964 2.05-11.513-1.577-3.39-4.416-5.125-8.516-5.125-2.918 0-5.835 1.34-8.595 4.1a30.028 30.028 0 00-6.545 9.384c-1.577 3.548-2.444 6.86-2.523 9.856-.079 3.075.788 5.52 2.602 7.333 3.785 3.785 10.487 3.391 17.663 1.262 3.548-1.025 7.018-2.76 10.408-5.204 3.391-2.445 5.757-5.362 6.94-8.595zm-19.95-10.25c.71 0 1.183.157 1.34.551.395.868.158 1.893-.867 3.075-1.34 1.498-3.627 2.287-6.94 2.287 2.209-3.548 5.126-5.914 6.467-5.914zm16.814 23.497c2.602-5.046 6.072-9.856 10.408-14.509-1.182 4.495-1.734 8.753-1.734 12.695 0 2.13 1.813 3.943 3.942 3.943 3.706 0 7.807-1.577 12.459-4.731 4.652-3.233 7.649-6.781 9.068-10.724.71-1.971-.237-4.18-2.366-5.047a4.372 4.372 0 00-1.34-.236c-1.814 0-2.996.867-3.706 2.602-.552 1.656-1.814 3.39-3.785 5.047a26.238 26.238 0 01-5.993 3.942c.946-6.86 3.075-13.01 6.387-18.372 1.025-1.735.868-3.391-.552-4.89-.867-.709-1.813-1.103-2.838-1.103-.947 0-2.445.71-4.495 2.129-1.971 1.34-3.706 2.68-5.126 3.943a57.336 57.336 0 00-3.863 3.548l1.42-2.839c1.024-1.892.393-4.179-1.5-5.362a3.663 3.663 0 00-1.813-.473c-1.577 0-2.76.71-3.548 2.05-4.337 7.807-7.176 16.48-8.437 26.022a3.963 3.963 0 002.76 4.258c.394.157.788.236 1.182.236 1.577 0 2.76-.71 3.47-2.129zm62.891-13.247c.71-1.971-.158-4.18-2.287-5.047a4.463 4.463 0 00-1.419-.236c-1.735 0-2.918.867-3.627 2.523-1.183 2.918-3.864 5.362-8.122 7.333-4.179 1.972-8.201 2.918-11.986 2.918-1.892 0-2.287-.316-2.287-2.13 0-.472.079-1.182.237-2.128 1.183.236 2.523.315 3.864.315 5.204 0 9.226-1.656 12.143-5.046 2.918-3.39 3.706-7.964 2.05-11.513-1.577-3.39-4.415-5.125-8.516-5.125-2.917 0-5.835 1.34-8.595 4.1a30.023 30.023 0 00-6.544 9.384c-1.578 3.548-2.445 6.86-2.524 9.856-.079 3.075.789 5.52 2.602 7.333 3.785 3.785 10.488 3.391 17.663 1.262 3.549-1.025 7.018-2.76 10.409-5.204 3.39-2.445 5.756-5.362 6.939-8.595zm-19.95-10.25c.71 0 1.183.157 1.341.551.394.868.157 1.893-.868 3.075-1.34 1.498-3.627 2.287-6.939 2.287 2.208-3.548 5.126-5.914 6.466-5.914zm46.62 10.408c.71-2.13-.394-4.337-2.365-5.047a4.373 4.373 0 00-1.341-.236c-1.813 0-3.075.867-3.706 2.602-.867 2.286-2.444 4.258-4.731 5.914.631-6.072-2.917-13.327-9.856-20.266-.789-.788-1.735-1.182-2.839-1.182-.315 0-.552 0-.71.079-1.34.236-2.365 1.025-2.917 2.365l-5.441 13.01c-.867 1.972.158 4.259 2.129 5.126.394.237.946.316 1.498.316 1.735 0 2.918-.789 3.627-2.445l3.076-7.175c3.233 4.494 4.336 8.121 3.233 10.881-1.026 2.287-3.47 3.47-7.413 3.47-2.129 0-3.942 1.734-3.942 3.942S144.014 68 146.143 68c13.878 0 24.287-5.756 27.756-15.297zM44.571 27.015c-2.546-3.446-5.985-5.039-10.476-4.852-3.939.163-7.841 1.588-11.783 4.356-3.941 2.768-7.237 6.061-9.96 10.041-2.725 3.901-4.887 8.174-6.567 12.742-1.68 4.568-2.426 8.702-2.315 12.485.307 10.483 7.27 16.586 18.536 16.118 3.94-.164 7.453-1.414 10.616-3.834-1.35 10.472-4.823 15.746-13.332 16.1-3.624.15-6.328-.606-8.031-2.192-.73-.68-1.687-1.035-2.79-.989-1.024.043-1.88.473-2.725 1.218-1.53 1.642-1.455 4.164.164 5.596 3.325 3.098 7.862 4.487 13.614 4.249 5.436-.226 10.03-2.232 12.879-4.639 2.85-2.328 5.158-7.001 6.32-10.443.58-1.68 1.068-3.91 1.462-6.61.391-2.779.642-4.999.75-6.66.186-1.744.277-4.036.432-6.805.346-7.038.84-11.714 1.641-13.957.436-1.28.244-2.456-.5-3.61-.901-1.145-2.02-1.651-3.36-1.596l-12.054.501a3.962 3.962 0 00-3.824 4.105c.065 2.206 1.85 3.869 4.055 3.777l7.012-.291c-.32 2.538-.563 4.994-.654 7.287l-.076.082.002.079c-.656 1.842-1.474 3.533-3.37 6.137-1.816 2.601-4.916 4.466-8.462 4.613-6.933.288-10.249-2.494-10.427-8.563-.173-5.911 2.672-13.763 7.449-20.354 4.85-6.751 10.566-10.855 15.53-11.062 1.654-.068 2.933.51 3.837 1.735.901 1.146 1.017 2.404.51 3.924-.805 2.165.365 4.405 2.356 5.032.637.21 1.112.27 1.506.253 1.733-.072 2.89-.988 3.55-2.673 1.458-4.085.953-7.852-1.515-11.3z" fill="#323131"/></svg>