<svg width="562" height="423" fill="none" xmlns="http://www.w3.org/2000/svg"><path d="M491.265 224.498L314.499 121.87a8.416 8.416 0 00-8.408 0L41.776 272.979a8.388 8.388 0 000 14.468l169.031 97.437a27.312 27.312 0 0027.282 0l253.176-145.946a8.402 8.402 0 004.117-7.22 8.402 8.402 0 00-4.117-7.22z" fill="#55823D" fill-opacity=".76"/><path style="mix-blend-mode:multiply" d="M262.569 221.169l70.16-40.45-48.315-14.117-65.62 35.077c8.463 5.75 35.437 13.501 43.775 19.49z" fill="url(#paint0_linear)"/><path style="mix-blend-mode:multiply" d="M393.332 285.376l70.16-40.45-48.314-14.131-65.62 35.077c8.463 5.792 35.437 13.502 43.774 19.504z" fill="url(#paint1_linear)"/><path style="mix-blend-mode:multiply" d="M147.961 345.946l59.889-34.531-22.42-14.817-69.305 30.515c8.478 5.793 23.555 12.803 31.836 18.833z" fill="url(#paint2_linear)"/><path style="mix-blend-mode:multiply" d="M332.35 258.078l70.16-40.45-48.314-14.117-65.62 35.077c8.463 5.792 35.451 13.502 43.774 19.49z" fill="url(#paint3_linear)"/><path d="M229.233 141.5c-.35-.321-6.165 3.162-7.104 4.799-.939 1.637-7.426 3.288-7.426 3.288l2.312 8.102s4.89-3.065 6.291-3.051c1.401.014 5.381 1.26 7.23 0 1.85-1.259 5.003-6.562 4.204-9.612-.799-3.05-5.507-3.526-5.507-3.526zM143.085 310.967v-13.712l9.809 1.147-.729 15.447s-9.08 4.519-9.08-2.882zM181.591 279.906s3.223 16.16 3.882 16.65c.658.489 8.841 1.525 8.407-.49-.434-2.015-1.541-18.189-1.541-18.189" fill="#FF945F"/><path d="M204.445 300.109c-2.886-1.106-8.982-5.135-10.565-8.004-4.204 1.637-6.446 2.309-10.453.784-.14 3.19-.393 7.807 2.004 8.689 3.881 1.399 21.565 14.747 23.33 6.996.855-3.792.014-6.828-4.316-8.465z" fill="#08679B"/><path d="M176.967 191.884s19.239 75.806 16.815 94.275c-.294 2.197-11.378 2.994-19.617 0 0 0-15.246-82.089-14.153-91.701" fill="#68E1FD"/><path d="M152.95 197.747s-5.367 60.164-7.987 67.733c-2.158 6.269-5.969 30.39-7.245 38.729a18.337 18.337 0 0016.171 1.973c3.166-11.193 10.691-37.973 12.611-44.227 2.396-7.976 6.558-50.37 6.558-50.37l-20.108-13.838z" fill="#68E1FD"/><path d="M179.882 200.854c.756-13.362 1.639-39.946-3.139-41.108-6.404-1.553-24.298 6.31-28.305 11.711-2.803 3.806 1.051 22.904 3.601 33.888 8.912 2.253 20.276.853 27.843-4.491z" fill="#B3B3B3"/><path d="M169.667 154.541a11.84 11.84 0 004.414-7.108c.854-4.645-3.994-6.87-6.586-6.87 0 0 1.499 1.063 1.667 1.693 0 0-1.947-2.672-7.104-1.707-5.157.966-.518 1.861-.518 1.861s-5.185-.798-8.072 0c-2.886.798-4.329 2.155-3.881 2.644.448.49 1.611.07 2.074.406.462.336-2.677 2.141-2.803 3.484-.126 1.343 2.242 2.239 2.074 2.547-.168.307-2.732-.896-2.802-.406-.07.49 4.68 11.039 12.737 10.661" fill="#A0421D"/><path d="M170.535 149.742a.554.554 0 00-.21-.14.564.564 0 00-.252 0 20.945 20.945 0 01-4.568.504c-1.527-.098-3.027-.42-4.54-.504-.645 0-1.233.895-1.653 2.322a67.516 67.516 0 00-.393 7.332 6.99 6.99 0 001.701 3.593 7.014 7.014 0 003.386 2.088c2.69.671 4.498-.756 5.465-3.009a24.101 24.101 0 001.695-9.388v-1.567a1.624 1.624 0 00-.631-1.231z" fill="#FFB288"/><path d="M169.807 148.427s-1.682 12.746-10.397 13.292c-4.302.266-5.942-10.382-5.942-10.382s6.74-6.506 11.21-6.506a4.781 4.781 0 015.129 3.596z" fill="#A0421D"/><path d="M167.341 156.75c-.113-.616 1.401-3.12-2.284-1.749-3.686 1.371-2.214 4.659 0 5.317" fill="#FFB288"/><path d="M152.543 167.86s-23.26 10.76-20.205 19.225c3.054 8.465 29.916 3.931 37.469 0 0 0-1.219-11.193-2.509-11.711M173.94 159.577s41.127-13.991 42.836-11.599c0 0 3.531 6.786 1.233 11.557 0 0-37.427 18.973-44.055 17.392" fill="#B3B3B3"/><path d="M143.141 311.135s-.56 14.538 1.906 18.693c2.466 4.156 13.858 1.973 13.606-1.903-.252-3.875-4.484-9.248-4.848-13.418-.365-4.169-1.752-3.372-1.752-3.372s-2.62 5.429-8.912 0z" fill="#08679B"/><path d="M199.275 101.093l-25.335 71.959 26.246 56.876" stroke="#42210B" stroke-width=".977" stroke-miterlimit="10"/><path d="M200.676 92.81c-1.177 4.197-2.382 9.234 0 13.222 3.139 5.303 11.476 6.73 15.988 10.788 13.802 12.382 16.549 28.095 11.378 45.402-4.063 13.628-11.658 25.325-19.337 37.12-7.412 11.389-10.873 22.387-9.206 36.042.168 1.33 2.27 1.4 2.102 0-1.906-15.642 3.545-26.905 11.952-39.554 7.203-10.829 13.648-22.386 17.067-34.979 2.971-10.955 3.504-23.226-2.312-33.37a48.996 48.996 0 00-13.914-15.195c-2.55-1.763-5.605-2.476-8.183-4.085-6.053-3.694-5.129-9.109-3.517-14.761a1.048 1.048 0 00-.368-1.11 1.06 1.06 0 00-1.168-.085 1.044 1.044 0 00-.496.635l.014-.07z" fill="#42210B"/><path d="M171.782 173.206l77.391-36.98 7.581-3.596-6.951 5.093-78.021 36.966v-1.483z" fill="#0F2741"/><path d="M162.114 176.982s1.822-3.414 3.307-3.959c1.485-.546 9.192-1.497 10.089 0a1.187 1.187 0 01-.729 1.917s.252 6.646-2.312 7.527c-2.564.882-8.828.714-8.828.714l-4.61 2.168-2.984-5.596 6.067-2.771zM232.358 141.473c-.743 0-4.582 1.049-4.092 2.21a2.301 2.301 0 002.032 1.162s-2.592 1.063-2.074 2.224a2.798 2.798 0 002.032 1.399s-3.013 1.4-1.99 2.295l1.023.881s-1.275 1.4-.21 2.225c1.065.826 4.47.532 4.89-1.063a5.421 5.421 0 000-2.799s1.668-1.049 1.093-2.056l-.574-1.022s1.695-1.595.686-2.224l-1.009-.644s1.163-1.665.533-2.532c-.631-.868-2.34-.056-2.34-.056z" fill="#FFB288"/><path d="M156.061 179.711s-5.605 2.281-10.033 1.665c-4.428-.616 10.033-1.665 10.033-1.665zM149.223 191.884l2.802 13.46 7.945-15.979s-3.363 2.673-10.747 2.519z" fill="#7C7C7C"/><path d="M410.189 199.901c7.903 8.997-.322 15.979.182 30.166.039 1.157.261 2.3.659 3.386a54.965 54.965 0 0024.984 10.606c.224-10.928 19.141-19.085 18.356-31.831-.827-13.264-18.734-6.058-12.191-20.806 6.544-14.747 4.204-33.579-6.249-40.435-7.721-5.121-16.577-16.482-20.626-22.023v4.743c.798 8.647-2.803 18.189-7.259 25.031-4.12 6.352-10.117 11.655-13.354 18.553a20.36 20.36 0 00-.882 2.211c-3.083 11.781 9.57 12.634 16.38 20.399z" fill="#CEC300"/><path d="M418.624 173.471c1.654 7.584 7.399 13.292 10.328 20.33 3.601 8.675-.267 16.79-1.752 25.451-1.569 9.094 1.962 16.79 6.446 24.331l1.751.35a59.688 59.688 0 01-5.983-11.795 26.173 26.173 0 01-.645-13.991c1.584-7.724 4.723-15.391 2.018-23.185-2.494-7.261-8.281-12.9-10.495-20.273-2.676-8.913 2.466-17.812.715-26.794-.883-4.52-3.279-8.563-5.521-12.523l-.239-.434c0 .784-.056 1.563-.168 2.337a38.915 38.915 0 014.47 10.088c2.102 8.675-2.83 17.35-.925 26.108z" fill="#2E6300"/><path d="M493.128 181.293c8.408-3.47 16.717-15.503 10.636-22.709-6.082-7.205-4.554-17.839-4.554-17.839a13.696 13.696 0 01-7.217 7.416c-17.095 5.89-18.622 15.726-19 23.324-.379 7.597 8.743 23.897-18.609 32.628-25.432 8.115-7.525 37.218-4.89 41.247 5.515.115 11.031-.166 16.506-.839a146.827 146.827 0 0118.385-8.157c16.338-6.073 10.257-20.484 3.04-28.837-7.216-8.353-2.648-22.764 5.703-26.234z" fill="#CFE217"/><path d="M498.691 142.704c-4.204 6.31-5.114 13.921-7.202 21.071-2.27 7.78-7.287 13.698-11.294 20.568a32.489 32.489 0 00-4.022 10.228c-.77 3.945-.827 7.975-1.219 11.963a30.976 30.976 0 01-3.741 12.592 74.896 74.896 0 01-7.441 10.102c-3.951 4.827-8.001 10.116-9.598 16.132h1.401c1.654-5.876 5.731-11.011 9.613-15.726 4.694-5.723 9.206-11.557 10.551-19.015 1.485-8.227.672-16.44 4.75-24.051 3.433-6.409 8.407-11.893 11.056-18.721 3.125-8.059 3.349-17.126 8.309-24.444.463-.741-.7-1.399-1.163-.699z" fill="#2E6300"/><path d="M447.616 245.304c-3.293-10.564-.546-23.912 6.754-33.076 8.408-10.48 13.312-20.246 7.609-31.467a45.806 45.806 0 01-4.946-21.799c-8.408 17.07-16.717 23.142-14.868 32.446 1.85 9.305-.336 13.46-6.137 27.872-4.106 10.2 0 20.218 2.803 25.185a74.22 74.22 0 008.785.839z" fill="#9ABC0C"/><path d="M442.81 244.967l1.499.126c-3.391-9.682-4.666-19.882.309-29.564 2.592-5.051 6.081-9.598 8.491-14.747 2.592-5.597 2.803-10.844 2.13-16.874a55.077 55.077 0 012.55-23.604c.281-.811-1.009-1.161-1.275-.35a53.968 53.968 0 00-2.9 20.218c.182 3.638.882 7.262.728 10.914a24.464 24.464 0 01-2.648 9.612c-2.578 5.317-6.25 10.018-8.8 15.391a32.139 32.139 0 00-2.732 18.189 53.238 53.238 0 002.648 10.689z" fill="#2E6300"/><path d="M264.601 140.619c7.903 8.997-.323 15.978.182 30.166a11.517 11.517 0 004.778 8.829c6.53 2.63 14.096 2.714 21.117 3.12 2.284-9.934 18.832-17.853 18.09-29.802-.827-13.264-18.735-6.059-12.191-20.806 6.544-14.747 4.203-33.58-6.25-40.436-7.749-5.135-16.562-16.482-20.612-22.008v4.743c.799 8.647-2.802 18.189-7.258 25.03-4.12 6.353-10.117 11.656-13.354 18.554a20.433 20.433 0 00-.883 2.21c-3.083 11.795 9.571 12.635 16.381 20.4z" fill="#CEC300"/><path d="M273.036 114.188c1.653 7.583 7.399 13.292 10.327 20.33 3.601 8.674-.266 16.79-1.751 25.45-1.402 8.395 1.401 15.573 5.408 22.569l1.556.084a51.758 51.758 0 01-4.751-9.794 26.167 26.167 0 01-.644-13.992c1.583-7.723 4.722-15.391 2.018-23.184-2.494-7.262-8.282-12.9-10.496-20.274-2.676-8.913 2.467-17.811.715-26.794-.883-4.52-3.279-8.563-5.521-12.522l-.238-.434a16.3 16.3 0 01-.168 2.337 38.976 38.976 0 014.47 10.088c2.102 8.716-2.831 17.391-.925 26.136z" fill="#2E6300"/><path d="M347.54 122.01c8.407-3.47 16.717-15.503 10.635-22.709-6.081-7.205-4.554-17.797-4.554-17.797a13.691 13.691 0 01-7.216 7.415c-17.095 5.89-18.623 15.727-19.001 23.324-.378 7.598 8.744 23.828-18.608 32.587-22.084 6.996-11.491 29.914-6.586 38.463 7.703.192 15.411-.098 23.078-.868a2.3 2.3 0 01.673 0 161.849 161.849 0 0112.849-5.372c16.338-6.073 10.257-20.484 3.041-28.837-7.217-8.353-2.663-22.736 5.689-26.206z" fill="#CFE217"/><path d="M353.089 83.42c-4.204 6.31-5.115 13.922-7.203 21.071-2.27 7.78-7.286 13.698-11.294 20.568a32.463 32.463 0 00-4.021 10.228c-.771 3.945-.827 7.975-1.219 11.963a30.977 30.977 0 01-3.742 12.592 74.975 74.975 0 01-7.44 10.102 52.325 52.325 0 00-8.646 13.376h1.402a54.577 54.577 0 018.617-12.97c4.694-5.723 9.206-11.557 10.551-19.015 1.486-8.227.673-16.44 4.751-24.051 3.433-6.409 8.407-11.893 11.055-18.721 3.125-8.059 3.349-17.126 8.31-24.444.504-.727-.645-1.399-1.121-.7z" fill="#2E6300"/><path d="M292.289 182.845c3.027.215 6.044.36 9.052.434a38.152 38.152 0 017.455-30.334c8.407-10.479 13.311-20.245 7.608-31.467a45.814 45.814 0 01-4.96-21.785c-8.408 17.07-16.717 23.142-14.867 32.447 1.849 9.304-.337 13.46-6.138 27.871-3.517 8.759-.967 17.378 1.584 22.821l.266.013z" fill="#9ABC0C"/><path d="M296.395 183.083h1.401c-2.705-8.871-3.335-18.091 1.191-26.892 2.592-5.051 6.081-9.598 8.491-14.747 2.593-5.597 2.803-10.843 2.13-16.874a55.076 55.076 0 012.593-23.478c.28-.811-1.009-1.161-1.276-.35a53.968 53.968 0 00-2.9 20.218c.182 3.638.883 7.262.728 10.914a24.464 24.464 0 01-2.648 9.612c-2.578 5.317-6.249 10.018-8.8 15.391a32.14 32.14 0 00-2.732 18.189 49.46 49.46 0 001.822 8.017z" fill="#2E6300"/><path d="M344.975 206.897v5.807h61.543v-5.807" fill="gray"/><path d="M375.747 222.68c16.994 0 30.771-4.467 30.771-9.976 0-5.51-13.777-9.976-30.771-9.976-16.995 0-30.772 4.466-30.772 9.976 0 5.509 13.777 9.976 30.772 9.976z" fill="gray"/><path d="M375.747 216.873c16.994 0 30.771-4.467 30.771-9.976 0-5.51-13.777-9.976-30.771-9.976-16.995 0-30.772 4.466-30.772 9.976 0 5.509 13.777 9.976 30.772 9.976z" fill="#E6E6E6"/><path d="M382.697 203.064v-71.749a6.991 6.991 0 00-2.052-4.947 7.011 7.011 0 00-9.908 0 6.992 6.992 0 00-2.053 4.947v71.763a19.785 19.785 0 0014.013-.014z" fill="#E6E6E6"/><path d="M376.644 124.431v79.85a21.022 21.022 0 006.053-1.218v-71.748a7.004 7.004 0 00-6.053-6.884z" fill="gray"/><path d="M424.468 85.702c-1.738-26.976-19.702-48.145-41.197-49.824h-.756c-6.223-.44-12.47-.44-18.693 0l7.006 1.26c-19.841 5.596-33.755 28.136-32.088 54.077 1.527 23.785 15.694 43.08 33.77 48.453l-5.185 1.497s13.76.685 18.777-.168h.154c23.036-2.295 40.033-26.696 38.212-55.295z" fill="#68E1FD"/><path opacity=".44" d="M424.468 85.702c-1.738-26.976-19.702-48.145-41.197-49.824h-.756c-6.223-.44-12.47-.44-18.693 0l7.006 1.26c-19.841 5.596-33.755 28.136-32.088 54.077 1.527 23.785 15.694 43.08 33.77 48.453l-5.185 1.497s13.76.685 18.777-.168h.154c23.036-2.295 40.033-26.696 38.212-55.295z" fill="#000"/><path d="M370.599 141.122c23.663-1.516 41.332-26.306 39.465-55.37-1.867-29.065-22.563-51.398-46.226-49.883-23.663 1.516-41.333 26.306-39.466 55.37 1.867 29.065 22.564 51.398 46.227 49.883z" fill="#68E1FD"/><path d="M366.4 130.909h-.518c-9.29-.168-17.894-4.855-24.241-13.194a48.223 48.223 0 01-9.277-30.082c.435-23.506 16.143-42.325 35.115-41.975 9.291.168 17.894 4.855 24.242 13.194a48.222 48.222 0 019.276 30.082c-.448 23.268-15.918 41.975-34.597 41.975zm.547-79.752c-15.638 0-28.599 16.258-28.978 36.504a42.618 42.618 0 008.127 26.584c5.283 6.996 12.345 10.843 19.884 10.983h.42c15.638 0 28.6-16.258 28.978-36.504a42.618 42.618 0 00-8.127-26.584c-5.283-6.996-12.345-10.843-19.884-10.983h-.42z" fill="#68E1FD"/><path d="M366.989 112.566h-.322c-11.21-.21-20.052-11.543-19.8-25.255a27.957 27.957 0 016.039-17.238 18.628 18.628 0 0114.685-7.261c11.21.21 20.052 11.543 19.8 25.254a27.956 27.956 0 01-6.039 17.224 18.539 18.539 0 01-14.363 7.276zm.294-44.172a13.078 13.078 0 00-10.033 5.219 22.367 22.367 0 00-4.708 13.796c-.196 10.633 6.208 19.406 14.293 19.588a13.007 13.007 0 0010.243-5.219 22.36 22.36 0 004.778-13.796c.196-10.633-6.207-19.406-14.293-19.588h-.28z" fill="#68E1FD"/><path d="M373.727 88.407c.086-4.289-2.561-7.82-5.912-7.887-3.351-.067-6.137 3.356-6.223 7.644-.085 4.289 2.561 7.82 5.912 7.887 3.351.067 6.137-3.356 6.223-7.644z" fill="#68E1FD"/><g opacity=".27" fill="#000"><path opacity=".27" d="M366.4 130.909h-.518c-9.29-.168-17.894-4.855-24.241-13.194a48.223 48.223 0 01-9.277-30.082c.435-23.506 16.143-42.325 35.115-41.975 9.291.168 17.894 4.855 24.242 13.194a48.222 48.222 0 019.276 30.082c-.448 23.268-15.918 41.975-34.597 41.975zm.547-79.752c-15.638 0-28.599 16.258-28.978 36.504a42.618 42.618 0 008.127 26.584c5.283 6.996 12.345 10.843 19.884 10.983h.42c15.638 0 28.6-16.258 28.978-36.504a42.618 42.618 0 00-8.127-26.584c-5.283-6.996-12.345-10.843-19.884-10.983h-.42z"/><path opacity=".27" d="M366.989 112.565h-.322c-11.21-.21-20.052-11.543-19.8-25.255a27.958 27.958 0 016.04-17.238 18.616 18.616 0 016.499-5.33 18.646 18.646 0 018.186-1.932c11.209.21 20.051 11.544 19.799 25.255a27.956 27.956 0 01-6.039 17.224 18.539 18.539 0 01-14.363 7.276zm.294-44.172a13.07 13.07 0 00-10.033 5.22 22.373 22.373 0 00-4.708 13.795c-.196 10.633 6.208 19.406 14.293 19.588a13.015 13.015 0 0010.243-5.219 22.36 22.36 0 004.778-13.796c.196-10.633-6.207-19.406-14.292-19.588h-.281z"/><path opacity=".27" d="M373.727 88.406c.086-4.289-2.561-7.82-5.912-7.887-3.35-.067-6.137 3.356-6.222 7.644-.086 4.289 2.56 7.82 5.911 7.887 3.351.067 6.137-3.356 6.223-7.644z"/></g><defs><linearGradient id="paint0_linear" x1="315.928" y1="153.058" x2="268.185" y2="198.517" gradientUnits="userSpaceOnUse"><stop stop-color="#88A80D"/><stop offset="1" stop-color="#fff"/></linearGradient><linearGradient id="paint1_linear" x1="36602.4" y1="8637.95" x2="35103.8" y2="11612.2" gradientUnits="userSpaceOnUse"><stop stop-color="#88A80D"/><stop offset="1" stop-color="#fff"/></linearGradient><linearGradient id="paint2_linear" x1="12764.1" y1="10421.9" x2="11611.5" y2="12458.7" gradientUnits="userSpaceOnUse"><stop stop-color="#88A80D"/><stop offset="1" stop-color="#fff"/></linearGradient><linearGradient id="paint3_linear" x1="31583" y1="7543.9" x2="30085" y2="10517.7" gradientUnits="userSpaceOnUse"><stop stop-color="#88A80D"/><stop offset="1" stop-color="#fff"/></linearGradient></defs></svg>