<svg width="179" height="165" fill="none" xmlns="http://www.w3.org/2000/svg"><g clip-path="url(#clip0)"><path d="M132.763 157.882l-2.436-40.48c-.208-3.198-2.644-5.883-5.986-6.65l-15.593-3.582-9.397-4.284-4.315 8.186c-.348.639-.975 1.023-1.74 1.023h-6.751c-.767 0-1.463-.384-1.74-1.023l-3.969-8.123-9.397 4.286-15.731 3.517c-3.342.767-5.778 3.452-5.986 6.65l-2.436 40.48c-.14 2.685 2.088 4.923 4.941 5.115h75.246c2.925 0 5.29-2.174 5.29-4.859v-.256z" fill="#68E1FD"/><path d="M108.679 107.106l-4.663 10.488c-.348.832-1.392 1.215-2.228.895a2.542 2.542 0 01-.697-.448l-6.124-6.969 4.315-8.186 9.397 4.22zM75.963 117.657c.348.832 1.392 1.216 2.229.896.277-.127.486-.256.696-.447l5.916-6.78c-.07-.063-.14-.191-.14-.255l-3.967-8.122-6.265 2.814-3.132 1.407 4.663 10.487z" fill="#63E3CE"/><path d="M155.734 140.615l-1.67-27.69c-.14-2.302-1.88-4.284-4.386-4.86l-11.416-2.622-6.891-3.133-2.296 6.138c-.14.385-.488.576-.906.576h-7.099a.995.995 0 01-.906-.576l-2.296-6.138-6.891 3.133-3.969.896 1.671.767 15.593 3.581c3.341.768 5.778 3.453 5.986 6.65l1.74 28.841h17.89c3.202 0 5.776-2.366 5.776-5.307.07-.064.07-.129.07-.256z" fill="#63E3CE"/><path d="M140.002 74.94c-.348 0-.626 0-.974.064 0 .32.07.576.07.896v9.336c0 .32 0 .576-.07.895 3.341.511 6.474-1.598 7.031-4.668.556-3.07-1.74-5.948-5.082-6.459-.278 0-.626-.064-.975-.064zM124.41 98.729c-2.296 0-4.524-.513-6.542-1.407v4.987l2.296 6.139c.14.385.488.576.906.576h7.099a.994.994 0 00.906-.576l2.296-6.139v-5.18c-2.158 1.087-4.525 1.6-6.961 1.6z" fill="#FFB288" fill-opacity=".65"/><path d="M139.098 73.022c0-.385-.348-.704-.766-.704-6.125-.192-9.327-2.366-10.58-3.517-.279-.255-.835-.255-1.114 0l-.069.064a14.203 14.203 0 01-7.101 4.477c-.138 4.22-3.898 7.609-8.561 7.481-.418 0-.836-.063-1.184-.127 0 .32-.069.574-.069.894v3.582c0 7.418 6.613 13.493 14.687 13.493 8.074 0 14.687-6.075 14.687-13.493V73.15c.07 0 .07-.064.07-.128zM40.463 85.236V75.9c0-.32 0-.64.07-.896-3.34-.512-6.542 1.535-7.1 4.604-.557 3.07 1.671 6.011 5.011 6.523a5.38 5.38 0 002.02 0v-.895z" fill="#FFB288" fill-opacity=".65"/><path d="M69.839 85.236v-2.878c-.071-.512-.14-1.088-.21-1.598-4.594.703-8.91-2.175-9.606-6.395-.277-1.408-.07-2.878.488-4.157-.696-.383-1.392-.895-2.019-1.407-.279-.255-.835-.255-1.113 0l-.07.064c-5.36 6.203-13.296 5.307-15.94 4.797-.418-.065-.836.19-.906.574v11c0 7.481 6.613 13.493 14.687 13.493 8.076 0 14.689-6.011 14.689-13.493z" fill="#FFB288" fill-opacity=".65"/><path d="M55.15 98.729c-2.296 0-4.524-.513-6.542-1.407v4.987l2.297 6.139c.14.385.488.576.905.576h7.1a.994.994 0 00.905-.576l2.296-6.139v-5.18c-2.157 1.087-4.524 1.6-6.96 1.6zM111.115 65.413c-.417 0-.904.064-1.323.127 0 .384.071.832.071 1.28v12.726c0 .447 0 .831-.071 1.215 4.596.703 8.911-2.175 9.607-6.395.765-4.22-2.367-8.186-6.961-8.826-.417-.127-.835-.127-1.323-.127zM69.56 79.48V66.756c0-.447 0-.832.07-1.28-4.595-.702-8.911 2.112-9.677 6.332-.765 4.22 2.298 8.185 6.892 8.89a10.19 10.19 0 002.784 0c0-.386-.07-.769-.07-1.216z" fill="#FFB288" fill-opacity=".65"/><path d="M92.738 57.1c-7.378 8.504-18.167 7.29-21.855 6.586-.558-.128-1.184.256-1.254.768V79.545c0 10.169 9.05 18.482 20.117 18.482 11.068 0 20.117-8.313 20.117-18.481v-16.5-.32c0-.51-.488-.959-1.044-.959-8.353-.255-12.739-3.26-14.48-4.796a1.162 1.162 0 00-1.53 0c0 .065-.07.065-.07.129z" fill="#FFB288" fill-opacity=".65"/><path d="M89.746 97.962c-3.132 0-6.195-.64-8.98-1.983v6.843l3.968 8.121c.278.64.975 1.023 1.74 1.023h6.753c.765 0 1.392-.383 1.74-1.023l4.315-8.185v-7.099c-2.923 1.535-6.195 2.303-9.536 2.303z" fill="#FFB288" fill-opacity=".65"/><path d="M135.895 58.698c-1.53 0-2.992.384-4.315 1.087-1.531-2.302-4.246-3.773-7.17-3.773h-4.315c-1.044 0-2.088.128-3.132.32v11.255c1.671 1.47 2.575 3.453 2.575 5.563v.256c2.784-.831 5.291-2.366 7.1-4.476a.833.833 0 011.114-.129l.069.065c1.254 1.087 4.455 3.325 10.581 3.518.418 0 .766.32.766.703v1.982c1.879-.256 3.828.256 5.22 1.535V66.436c-.14-4.284-3.828-7.738-8.493-7.738zM57.31 68.866a.83.83 0 011.113-.129l.07.064c.626.512 1.253 1.024 2.018 1.407a8.077 8.077 0 012.506-3.133V59.4c-.21.127-.487.192-.697.32-1.53-2.302-4.245-3.774-7.17-3.774h-4.315c-8.353 0-15.175 6.268-15.175 13.942v6.266c1.323-.96 3.063-1.407 4.803-1.15v-.64c0-.383.348-.703.766-.703h.14c2.715.51 10.58 1.406 15.94-4.796z" fill="#6D6C6B"/><path d="M68.306 65.412c.418 0 .836.064 1.323.064v-.896c0-.576.487-.96 1.114-.96h.209c3.619.704 14.478 1.92 21.857-6.585.348-.448 1.044-.512 1.53-.192l.07.063c1.671 1.535 6.126 4.54 14.479 4.796.556 0 1.044.449 1.044.96v2.814c2.575-.384 5.221.383 7.1 2.045V53.71c0-5.82-5.151-10.552-11.486-10.552-2.088 0-4.107.512-5.847 1.535-2.088-3.197-5.776-5.18-9.884-5.18H83.9c-11.486 0-20.744 8.57-20.744 19.057v8.569c1.392-1.15 3.272-1.726 5.151-1.726z" fill="#6D6C6B"/><path d="M69.212 24.485c-3.132-.576-5.5-2.75-6.126-5.628 0-.064-.07-.127-.139-.127-.07 0-.07.063-.14.127-.625 2.878-2.992 5.052-6.125 5.628-.069 0-.14.064-.14.127 0 .064.071.064.14.129 3.133.574 5.5 2.749 6.125 5.627 0 .063.07.128.14.128s.07-.065.139-.128c.627-2.878 2.994-5.053 6.126-5.627.07 0 .139-.065.139-.129l-.14-.127zM122.114 32.03c-.488 0-.905-.19-1.253-.447a.867.867 0 01-.208-.255c-.071-.064-.141-.192-.141-.257-.069-.127-.069-.19-.069-.32 0-.127-.069-.19-.069-.32 0-.127 0-.19.069-.319 0-.127.069-.191.069-.32.07-.127.07-.19.141-.255.069-.064.138-.192.208-.255.488-.449 1.253-.576 1.88-.32.069.063.208.063.277.127.071.064.21.129.279.193.069.063.14.127.209.256.07.063.139.19.139.254.069.065.069.193.069.32 0 .129 0 .193.071.32 0 .129 0 .192-.071.32 0 .128-.069.192-.069.32-.069.128-.069.192-.139.256-.069.063-.14.192-.209.256a.967.967 0 01-.279.192.544.544 0 01-.277.127c-.14.064-.21.064-.348.064-.071.064-.14.064-.279.064z" fill="#FCD770"/><path d="M92.81 6.836h-6.057c-.975 0-1.74-.704-1.74-1.599s.765-1.598 1.74-1.598h6.056c.974 0 1.74.703 1.74 1.598 0 .895-.766 1.6-1.74 1.6z" fill="#60BAE2"/><path d="M89.816 9.65c-.975 0-1.74-.704-1.74-1.6V2.487c0-.895.765-1.598 1.74-1.598.974 0 1.74.703 1.74 1.598V8.05c0 .896-.766 1.6-1.74 1.6z" fill="#60BAE2"/><path d="M140.003 87.794c-.417 0-.835-.064-1.252-.129-.906-.127-1.532-.83-1.463-1.662V75.9v-.832c-.069-.832.557-1.535 1.463-1.662 4.315-.64 8.353 2.045 9.049 6.011.696 3.964-2.228 7.674-6.544 8.313-.348.064-.765.064-1.253.064zm.836-11.19v7.929c2.366-.385 3.967-2.494 3.55-4.733-.348-1.598-1.74-2.877-3.55-3.197zM141.812 147.842c-.973 0-1.74-.704-1.74-1.599v-22.574c0-.896.767-1.599 1.74-1.599.975 0 1.741.703 1.741 1.599v22.574c0 .895-.766 1.599-1.741 1.599zM128.17 110.625h-7.1c-1.184 0-2.158-.64-2.576-1.663l-2.296-6.139c-.07-.192-.07-.319-.07-.512v-4.987c0-.895.766-1.599 1.74-1.599.278 0 .556.064.766.192a13.772 13.772 0 005.776 1.278c2.159 0 4.248-.51 6.126-1.406.835-.448 1.879-.129 2.367.64.139.256.208.51.208.766v5.18c0 .192 0 .385-.069.512l-2.296 6.139c-.419.895-1.463 1.599-2.576 1.599zm-6.544-3.198h5.987l2.018-5.372v-2.493c-3.271 1.023-6.751 1.023-10.093.128v2.365l2.088 5.372z" fill="#231F20"/><path d="M144.319 78.138c-.418 0-.905-.192-1.184-.448-.975-.895-2.367-1.279-3.759-1.087-.973.128-1.809-.448-2.017-1.342v-1.408c-5.152-.32-8.284-1.982-10.024-3.26-1.95 2.045-4.455 3.516-7.24 4.348-.905.255-1.879-.192-2.157-1.024-.07-.191-.07-.32-.07-.51v-.257c0-1.662-.766-3.261-2.019-4.413-.348-.32-.557-.703-.557-1.15V56.331c0-.767.557-1.406 1.392-1.534 1.184-.256 2.298-.32 3.481-.32h4.316c2.992 0 5.846 1.215 7.726 3.325 1.183-.447 2.437-.64 3.759-.64 5.569 0 10.163 4.157 10.163 9.337v10.168c-.07.767-.906 1.471-1.81 1.471zm-3.48-4.732c.556.064 1.183.191 1.74.32v-7.354c0-3.39-2.924-6.075-6.613-6.14a7.39 7.39 0 00-3.48.895c-.836.449-1.88.192-2.367-.574-1.184-1.855-3.342-3.007-5.709-3.007h-4.315c-.487 0-.905 0-1.392.064v9.273c1.183 1.151 1.95 2.623 2.298 4.156 1.669-.767 3.061-1.853 4.245-3.197.835-1.023 2.437-1.15 3.55-.384l.21.193c.973.895 3.828 2.877 9.397 3.069 1.321.064 2.436 1.024 2.436 2.303v.383z" fill="#231F20"/><path d="M124.41 100.328c-9.049 0-16.427-6.778-16.427-15.091v-3.581-.192c.069-.256.069-.576.069-.832.071-.895.906-1.534 1.881-1.47h.138c3.621.575 7.031-1.663 7.657-4.925.07-.32.07-.575.07-.894 0-.705.488-1.28 1.253-1.472 2.436-.703 4.663-2.11 6.265-3.964.835-1.024 2.436-1.152 3.55-.385l.209.193c.975.895 3.828 2.877 9.397 3.07 1.323.063 2.436 1.023 2.436 2.302v12.277c-.069 8.186-7.449 14.964-16.498 14.964zm-12.946-17.905v2.814c0 6.586 5.778 11.894 12.946 11.894 7.17 0 12.948-5.308 12.948-11.894V73.854c-5.151-.32-8.283-1.983-10.023-3.262a16.179 16.179 0 01-6.196 3.965c-.696 4.412-4.803 7.738-9.675 7.866zM39.489 87.795c-4.315 0-7.865-3.261-7.865-7.227 0-3.964 3.55-7.225 7.865-7.225.419 0 .836 0 1.253.063.906.128 1.531.831 1.462 1.663v10.935c.07.832-.556 1.535-1.462 1.662-.417.129-.834.129-1.253.129zm-.765-11.191c-2.367.383-3.968 2.494-3.55 4.732.348 1.663 1.74 2.942 3.55 3.261v-7.993z" fill="#231F20"/><path d="M55.15 100.328c-9.048 0-16.427-6.778-16.427-15.091V74.366c0-1.28 1.114-2.302 2.506-2.302.21 0 .348 0 .488.063 2.715.511 9.536 1.15 14.2-4.22.835-1.024 2.437-1.152 3.55-.385l.208.193c.488.447 1.115.831 1.67 1.151.766.384 1.045 1.214.697 1.982-1.392 3.07.14 6.651 3.55 7.994a7.252 7.252 0 003.69.383c.974-.127 1.809.448 2.018 1.343v.129c.07.51.07 1.023.208 1.47V85.3c.071 8.25-7.308 15.028-16.357 15.028zM42.205 75.452v9.849c0 6.587 5.778 11.894 12.947 11.894 7.17 0 12.948-5.307 12.948-11.894v-2.814c-5.569-.128-10.024-4.348-9.955-9.529 0-.703.139-1.406.279-2.046-.14-.127-.279-.192-.417-.32-5.221 5.436-12.46 5.309-15.802 4.86z" fill="#231F20"/><path d="M35.66 77.754c-.973 0-1.74-.703-1.74-1.598v-6.203c0-8.57 7.588-15.54 16.916-15.54h4.315c3.063 0 5.916 1.28 7.866 3.454.348 0 .696.063.975.256.486.32.835.831.835 1.342v7.674c0 .512-.208.96-.627 1.28-.904.639-1.6 1.47-2.018 2.43-.348.83-1.392 1.215-2.297.895-.07 0-.139-.065-.21-.129-.556-.32-1.044-.639-1.6-1.022-5.36 5.499-12.599 5.308-15.94 4.86-.21.768-1.044 1.278-1.95 1.151-1.183-.192-2.436.127-3.41.83-.348.257-.696.32-1.114.32zM50.837 57.61c-7.448 0-13.435 5.501-13.435 12.343v3.645c.488-.128 1.044-.191 1.532-.255.487-.96 1.67-1.471 2.784-1.28 2.715.512 9.536 1.151 14.2-4.22.835-1.024 2.437-1.151 3.55-.384l.208.192.21.191c.417-.51.834-1.023 1.392-1.47v-5.308a1.557 1.557 0 01-.487-.447c-1.184-1.855-3.342-3.006-5.709-3.006h-4.245zM37.748 147.842c-.973 0-1.74-.704-1.74-1.599v-22.574c0-.896.767-1.599 1.74-1.599.975 0 1.74.703 1.74 1.599v22.574c0 .895-.765 1.599-1.74 1.599zM58.91 110.625h-7.1c-1.184 0-2.157-.64-2.576-1.663l-2.297-6.139c-.069-.192-.069-.319-.069-.512v-4.987c0-.895.766-1.599 1.74-1.599.278 0 .556.064.766.192 1.81.831 3.759 1.278 5.776 1.278 2.16 0 4.248-.51 6.126-1.406.835-.448 1.88-.129 2.367.64.139.256.208.51.208.766v5.18c0 .192 0 .385-.069.512l-2.296 6.139c-.419.895-1.463 1.599-2.576 1.599zm-6.544-3.198h5.987l2.018-5.372v-2.493c-3.271 1.023-6.751 1.023-10.093.128v2.365l2.088 5.372zM111.116 82.424c-.556 0-1.114-.064-1.601-.127-.905-.129-1.532-.832-1.462-1.664 0-.383.07-.767.07-1.15V66.757c0-.384 0-.767-.07-1.152-.07-.83.557-1.534 1.462-1.662 5.498-.83 10.719 2.621 11.624 7.737.906 5.052-2.853 9.848-8.422 10.68-.488.064-1.044.064-1.601.064zm.488-15.411v12.214c3.688-.256 6.472-3.134 6.194-6.523-.278-3.07-2.923-5.5-6.194-5.691z" fill="#231F20"/><path d="M68.307 82.423c-5.569 0-10.163-4.156-10.163-9.336 0-5.18 4.525-9.273 10.163-9.273.557 0 1.113.064 1.601.128.904.128 1.531.832 1.462 1.662 0 .385-.07.768-.07 1.152v12.726c0 .383 0 .767.07 1.15.07.832-.558 1.535-1.462 1.664-.488.127-1.044.127-1.601.127zm-.418-15.411c-3.69.256-6.474 3.134-6.195 6.522.21 3.07 2.854 5.5 6.195 5.692V67.012z" fill="#231F20"/><path d="M89.746 99.562c-12.042 0-21.857-9.017-21.857-20.08V64.645c0-1.406 1.254-2.558 2.785-2.558.21 0 .417 0 .557.065 3.829.767 13.503 1.6 20.116-6.011.975-1.152 2.715-1.343 3.968-.448l.208.192c1.392 1.215 5.43 4.093 13.296 4.349 1.531.064 2.714 1.15 2.714 2.558v16.754c0 11.063-9.745 20.016-21.787 20.016zM71.37 65.35v14.132c0 9.336 8.214 16.883 18.376 16.883 10.163 0 18.377-7.547 18.377-16.883V63.366c-7.727-.32-12.252-2.941-14.479-4.796-7.518 8.122-18.167 7.483-22.274 6.78z" fill="#231F20"/><path d="M116.963 69.186c-.417 0-.906-.192-1.183-.448a7.116 7.116 0 00-4.595-1.726c-.348 0-.696 0-1.044.063-.974.128-1.81-.447-2.018-1.342v-2.431c-7.727-.32-12.252-2.941-14.479-4.796-7.518 8.186-18.098 7.483-22.274 6.778v.129c0 .895-.766 1.599-1.74 1.599h-.28c-.347-.064-.695-.064-1.043-.064-1.531 0-2.993.447-4.177 1.343-.765.575-1.879.447-2.436-.256-.279-.257-.348-.64-.348-1.023V58.57c0-11.382 10.093-20.655 22.484-20.655h5.916c4.108 0 7.936 1.726 10.442 4.733 1.671-.705 3.48-1.025 5.29-1.025 7.308 0 13.225 5.436 13.225 12.15v13.878c0 .83-.765 1.535-1.74 1.535zm-5.359-5.372c1.252.064 2.505.32 3.619.767V53.71c0-4.924-4.315-8.953-9.676-8.953-1.81 0-3.55.448-5.011 1.279-.836.448-1.88.192-2.367-.576-1.74-2.685-4.942-4.348-8.353-4.411h-5.917c-10.51 0-19.003 7.801-19.003 17.457v5.82c1.044-.32 2.088-.512 3.203-.575.138-.449.486-.896.904-1.216.627-.512 1.532-.703 2.367-.512 3.828.768 13.504 1.599 20.117-6.011.975-1.15 2.715-1.343 3.967-.447l.21.192c1.391 1.214 5.428 4.092 13.294 4.348 1.531.063 2.715 1.151 2.715 2.558v.32l-.069.831zM90.025 121.751c-.488 0-.905-.192-1.253-.447-.07-.065-.14-.128-.21-.256a2.176 2.176 0 01-.277-.576c0-.127-.07-.192-.07-.319 0-.896.766-1.599 1.74-1.599h.347c.14 0 .21.063.348.063.071.064.21.064.28.129.069.064.209.127.278.191.348.32.487.703.487 1.152v.32c-.07.191-.139.383-.278.575-.07.064-.14.192-.209.255a.927.927 0 01-.279.193.55.55 0 01-.279.127.663.663 0 01-.348.065c-.069.127-.208.127-.277.127zM90.025 130.001c-.14 0-.209 0-.348-.064-.14 0-.209-.065-.348-.065-.07-.064-.21-.064-.278-.127-.07-.064-.21-.128-.28-.193-.695-.639-.695-1.598 0-2.238a.943.943 0 01.28-.191.545.545 0 01.278-.129c.139-.063.208-.063.348-.063.208-.064.487-.064.697 0 .138 0 .208.063.348.063.138.065.208.065.277.129.07.064.21.127.279.191.696.64.696 1.599 0 2.238a.926.926 0 01-.28.193.55.55 0 01-.276.127.668.668 0 01-.348.065c-.14.064-.28.064-.349.064zM90.025 138.251c-.14 0-.21 0-.348-.065-.14 0-.21-.064-.348-.064-.07-.064-.21-.064-.279-.127-.069-.064-.209-.129-.278-.193-.348-.32-.487-.703-.487-1.15 0-.449.208-.832.487-1.152a1.934 1.934 0 012.436 0c.348.32.487.703.487 1.152.07.894-.696 1.599-1.67 1.599zM90.025 146.5c-.14 0-.21 0-.348-.064-.14 0-.21-.064-.348-.064-.14-.064-.21-.064-.279-.127a1.577 1.577 0 01-.488-.449c-.069-.063-.138-.191-.138-.256-.07-.127-.07-.191-.139-.319a.992.992 0 010-.64c0-.127.07-.191.139-.32.069-.127.069-.191.138-.255.14-.192.279-.319.488-.448a.541.541 0 01.28-.127c.138-.064.207-.064.347-.064.556-.129 1.183.064 1.531.447.07.064.139.128.21.256.069.064.138.191.138.256.07.128.07.191.07.32.069.191.069.447 0 .64 0 .127-.07.191-.07.319-.07.128-.07.191-.138.255-.14.192-.28.32-.489.448a.543.543 0 01-.278.128c-.139.064-.208.064-.348.064h-.278zM90.025 154.686c-.975 0-1.74-.703-1.74-1.599v-.32c0-.127.07-.192.139-.319.069-.128.069-.193.138-.256.071-.064.14-.192.21-.257.417-.383.974-.51 1.53-.447.14 0 .21.064.349.064.07.064.209.064.278.129.07.063.21.127.28.191.068.063.138.128.209.256.069.064.138.192.138.256.07.064.07.191.07.32 0 .127 0 .191.069.319 0 .448-.208.831-.487 1.151a.927.927 0 01-.279.192.541.541 0 01-.278.127.663.663 0 01-.348.065c-.07.128-.208.128-.278.128zM115.849 164.596c-.974 0-1.74-.703-1.74-1.599v-30.951c0-.896.766-1.599 1.74-1.599.975 0 1.741.703 1.741 1.599v30.951c0 .896-.837 1.599-1.741 1.599zM64.2 164.596c-.974 0-1.74-.703-1.74-1.599v-30.951c0-.896.766-1.599 1.74-1.599s1.74.703 1.74 1.599v30.951c0 .896-.766 1.599-1.74 1.599zM93.227 113.63h-6.753c-1.461 0-2.714-.769-3.34-1.984l-3.969-8.121c-.07-.192-.138-.447-.138-.639v-6.842c0-.896.765-1.599 1.74-1.599.279 0 .557.064.765.191a19.869 19.869 0 008.215 1.791c3.063 0 6.055-.703 8.7-2.047.835-.447 1.879-.127 2.367.64.139.256.208.512.208.768v7.098c0 .256-.069.512-.138.703l-4.317 8.186c-.625 1.15-1.948 1.855-3.34 1.855zm-10.72-11.128l3.828 7.802c0 .063.07.128.14.128h6.752c.07 0 .139-.065.139-.065l4.176-7.865v-4.285a23.191 23.191 0 01-7.796 1.344c-2.436 0-4.941-.385-7.239-1.152v4.093z" fill="#231F20"/><path d="M127.474 164.597H52.506c-3.897 0-7.03-2.878-7.03-6.459v-.383l2.437-40.48c.208-3.901 3.201-7.162 7.308-8.121l15.453-3.582 9.258-4.157c.835-.383 1.88-.063 2.296.705v.063l3.969 8.121c0 .064.07.129.139.129h6.751c.07 0 .14-.065.14-.065l4.315-8.185c.418-.768 1.462-1.151 2.298-.768l9.257 4.157 15.454 3.582c4.107.959 7.099 4.22 7.308 8.121l2.437 40.48c.208 3.517-2.715 6.586-6.613 6.778.069.064-.069.064-.209.064zm-47.612-59.6l-7.796 3.518c-.139.063-.21.063-.348.127l-15.593 3.581c-2.644.576-4.524 2.686-4.663 5.179l-2.436 40.48c-.14 1.792 1.392 3.325 3.34 3.39H127.543c1.949 0 3.551-1.471 3.551-3.262v-.191l-2.436-40.48c-.14-2.494-2.019-4.604-4.665-5.18l-15.592-3.581c-.139 0-.208-.063-.348-.128l-7.796-3.517-3.55 6.714c-.626 1.152-1.88 1.919-3.272 1.919h-6.751c-1.462 0-2.715-.767-3.342-1.983l-3.48-6.586zM90.025 89.329c-3.132 0-6.126-1.472-7.866-3.837-.557-.705-.348-1.728.487-2.239.766-.511 1.88-.32 2.436.448 1.88 2.558 5.64 3.197 8.353 1.471a5.637 5.637 0 001.601-1.471c.558-.703 1.602-.896 2.437-.447.834.447.975 1.47.486 2.238-1.81 2.365-4.802 3.837-7.934 3.837zM82.368 74.75c-.14 0-.209 0-.348-.064-.14 0-.209-.064-.348-.064-.14-.065-.21-.065-.278-.129-.07-.063-.21-.127-.28-.19-.695-.64-.695-1.665 0-2.24a.92.92 0 01.28-.191.544.544 0 01.278-.128c.139-.065.208-.065.348-.065.974-.19 1.88.385 2.018 1.28.14.895-.417 1.727-1.392 1.854-.07-.127-.208-.064-.278-.064zM97.682 74.75c-.14 0-.21 0-.348-.064-.14 0-.21-.064-.348-.064-.14-.065-.21-.065-.279-.129-.069-.063-.21-.127-.278-.19-.697-.64-.697-1.6 0-2.24a.922.922 0 01.278-.191.544.544 0 01.279-.128c.139-.065.208-.065.348-.065.974-.19 1.88.385 2.018 1.28.21.895-.418 1.727-1.392 1.854-.07-.127-.14-.064-.278-.064z" fill="#231F20"/><path d="M102.415 120.215A3.657 3.657 0 0199.7 119l-6.125-6.969a1.576 1.576 0 01-.21-1.728l4.317-8.184c.418-.768 1.462-1.152 2.296-.768l9.397 4.285c.837.383 1.185 1.279.837 2.046l-4.665 10.488c-.487 1.023-1.461 1.789-2.715 1.982-.069.063-.277.063-.417.063zm-5.429-9.399l5.429 6.202 4.037-9.144-6.404-2.878-3.062 5.82zM77.634 120.218c-.138 0-.348 0-.487-.064-1.253-.127-2.228-.896-2.715-1.982l-4.664-10.488c-.348-.767 0-1.662.836-2.046l9.397-4.285c.835-.384 1.879-.064 2.296.703v.065l3.969 8.121a1.528 1.528 0 01-.07 1.918l-5.916 6.779c-.627.832-1.602 1.279-2.646 1.279zm-4.107-12.342l4.038 9.144 5.22-6.011-2.924-6.01-6.334 2.877zM106.591 138.251h-8.492c-.975 0-1.74-.704-1.74-1.599s.766-1.598 1.74-1.598h8.492c.975 0 1.74.703 1.74 1.598 0 .895-.835 1.599-1.74 1.599z" fill="#231F20"/><path d="M149.957 147.843h-17.89c-.904 0-1.669-.639-1.74-1.535l-1.74-28.841c-.139-2.494-2.018-4.605-4.663-5.18l-15.593-3.581c-.138 0-.208-.064-.348-.128l-1.671-.768c-.834-.383-1.182-1.342-.765-2.109.209-.449.627-.704 1.113-.832l3.829-.896 6.683-3.005c.835-.383 1.879-.063 2.296.703 0 .064.07.129.07.193l2.159 5.626h5.986l2.157-5.626c.348-.832 1.323-1.279 2.227-.959.071 0 .14.063.21.063l6.682 3.005 11.206 2.623c3.203.703 5.5 3.325 5.709 6.33l1.671 27.69c.208 3.837-2.925 7.098-7.101 7.291-.279-.064-.417-.064-.487-.064zm-16.288-3.197h16.219c2.227 0 4.036-1.664 4.036-3.71v-.192l-1.67-27.689c-.07-1.663-1.322-3.007-3.062-3.39l-11.416-2.622c-.14 0-.209-.063-.348-.127l-5.082-2.303-1.671 4.413c-.348 1.022-1.392 1.662-2.575 1.662 2.367 1.599 3.759 4.029 3.967 6.715l1.602 27.243zm-20.952-38.242l5.29 1.215-1.183-3.07-4.107 1.855zM47.982 147.843h-17.96c-4.176 0-7.516-3.07-7.516-6.907v-.383l1.67-27.69c.14-3.005 2.506-5.627 5.708-6.332l11.206-2.621 6.682-3.005c.837-.384 1.88-.064 2.298.703 0 .064.07.127.07.192l2.157 5.627h5.986l2.159-5.627c.348-.832 1.321-1.279 2.227-.959.07 0 .139.064.21.064l6.681 3.005 3.829.895c.904.193 1.53 1.087 1.252 1.919a1.713 1.713 0 01-.904 1.023l-1.671.768c-.139.064-.21.064-.348.127l-15.593 3.581c-2.644.576-4.524 2.687-4.663 5.18l-1.74 28.842c-.07.959-.836 1.598-1.74 1.598zm-.418-43.294l-5.081 2.302c-.14.065-.21.065-.348.129l-11.416 2.622c-1.74.383-2.993 1.791-3.064 3.389l-1.669 27.689c-.14 2.047 1.6 3.837 3.828 3.901h16.497l1.67-27.369c.14-2.687 1.601-5.116 3.968-6.715h-.139c-1.184 0-2.157-.639-2.576-1.662l-1.67-4.286zm15.592 0l-1.183 3.07 5.29-1.215-4.108-1.855z" fill="#231F20"/></g><defs><clipPath id="clip0"><path fill="#fff" transform="translate(.718 .878)" d="M0 0h178.207v163.719H0z"/></clipPath></defs></svg>