<svg width="603" height="381" fill="none" xmlns="http://www.w3.org/2000/svg"><path d="M195.108 55.352s2.152 17.173 3.883 21.114c1.731 3.94 7.531 21.1 7.531 21.1s4.179 5.497 2.573 6.224c-1.606.727-4.132-4.232-4.132-4.232l-7.797-1.963s-6.954-17.203-8.575-20.969c-1.622-3.766-4.008-19.239-4.008-19.239" fill="#FFC8A9"/><path d="M292.547 376.11L12.317 221.649c-8.92-4.667-16.576-12.331-7.875-17.377L285.686 53.04c4.225-2.443 10.634-4.043 14.922-1.716l294.17 159.288c8.919 4.828 10.525 18.323 1.559 23.165L329.532 375.863c-5.608 3.04-11.971 4.661-18.457 4.705-6.487.043-12.874-1.493-18.528-4.458z" fill="#5ED18D"/><path style="mix-blend-mode:multiply" opacity=".63" d="M168.507 228.106l-57.271 35.016 168.275 100.512 68.483-39.495c-10.042-6.079-169.414-90.1-179.487-96.033z" fill="url(#paint0_linear)"/><path style="mix-blend-mode:multiply" opacity=".63" d="M522.881 214.466l-34.71 18.904 30.032 16.345 34.6-17.319c-9.901-6.006-19.865-12.055-29.922-17.93z" fill="url(#paint1_linear)"/><path d="M368.046 107.76c.515-1.018-8.591 11.386-10.774 12.142-3.93 1.352-18.041 9.001-24.808 8.957.499 2.167 5.738 4.363 6.237 6.53 3.914 1.454 19.631-4.712 25.868-7.155 5.395-2.123 13.846-12.826 13.846-12.826l-10.369-7.648z" fill="#F2C3BD"/><path d="M536.914 198.688c-7.968-.64-16.357-2.908-22.235-7.969v22.016c0 6.063 2.582 11.877 7.179 16.164 4.597 4.287 10.831 6.696 17.332 6.696 6.501 0 12.736-2.409 17.333-6.696 4.596-4.287 7.179-10.101 7.179-16.164v-22.321c-8.42 3.112-17.916 9.001-26.788 8.274z" fill="#68E1FD"/><path d="M539.128 202.687c13.537 0 24.511-5.423 24.511-12.113 0-6.69-10.974-12.113-24.511-12.113-13.538 0-24.512 5.423-24.512 12.113 0 6.69 10.974 12.113 24.512 12.113z" fill="#5ED18D"/><path d="M539.128 192.639s-16.668-2.283-21.081-27.426c.016 0 14.189 7.315 21.081 27.426zM541.591 189.44s-19.116-31.992 0-53.47c5.833 17.408 5.833 36.062 0 53.47z" fill="#5ED18D"/><path d="M539.128 169.329s-16.668-2.283-21.081-27.426c.016 0 14.189 7.315 21.081 27.426zM541.155 179.566s-4.241-15.211 18.992-28.72c0 0-1.746 15.051-18.992 28.72z" fill="#5ED18D"/><path d="M539.128 202.687c13.537 0 24.511-5.423 24.511-12.113 0-6.69-10.974-12.113-24.511-12.113-13.538 0-24.512 5.423-24.512 12.113 0 6.69 10.974 12.113 24.512 12.113z" fill="#146666"/><path d="M539.128 192.639s-16.668-2.283-21.081-27.426c.016 0 14.189 7.315 21.081 27.426zM541.591 189.44s-19.116-31.992 0-53.47c5.833 17.408 5.833 36.062 0 53.47z" fill="#5ED18D"/><path d="M539.128 169.329s-16.668-2.283-21.081-27.426c.016 0 14.189 7.315 21.081 27.426zM541.155 179.566s-4.241-15.211 18.992-28.72c0 0-1.746 15.051-18.992 28.72z" fill="#5ED18D"/><path d="M388.878 250.849a47.888 47.888 0 01-4.476 4.842 88.785 88.785 0 01-10.478 5.555c-1.387.524-3.321 1.163-3.321 3.228 0 2.065 2.916 3.999 7.063 3.752 4.148-.247 11.633-2.327 13.441-4.13 1.809-1.803 2.635-1.934 2.635-1.934s7.204 1.454 9.356-.131c1.559-1.192.405-7.707-.234-10.6a19.272 19.272 0 01-7.056 1.023 19.124 19.124 0 01-6.93-1.605zM435.718 269.098a25.098 25.098 0 01-.78 7.126c-.904 2.414-6.346 12.2-5.442 13.524a6.724 6.724 0 003.319 2.174 7.171 7.171 0 004.057-.008c3.368-1.09 8.544-4.464 9.449-7.125.904-2.661 1.294-8.812 1.949-10.746a16.29 16.29 0 000-5.817l-12.552.872z" fill="#F3A05E"/><path d="M397.937 162.785c0 .945 4.678 22.917 7.968 29.941 3.29 7.024 14.064 29.679 14.064 29.679s12.474 40.935 12.474 46.126c0 0 8.514 5.497 17.027 0 0 0-1.964-15.574-1.964-20.46 0-4.886-7.797-22.917-9.169-28.109-1.372-5.191-10.291-58.413-13.004-63.27-2.713-4.857-27.833-5.22-27.396 6.093z" fill="#335A6B"/><path d="M382.313 151.472v26.276c0 12.826 5.239 27.498 4.912 32.69-.328 5.191 0 41.24 0 41.24a16.739 16.739 0 008.038 2.04c2.826 0 5.601-.704 8.038-2.04 0 0 2.572-25.361 2.9-29.941.327-4.581 0-32.995 0-38.187 0-5.191-2.511-25.695-8.295-30.101-5.785-4.406-15.593-1.977-15.593-1.977z" fill="#335A6B"/><path d="M392.605 88.23s-7.625-.13-10.12 1.556c-2.495 1.687-16.778 17.188-16.778 17.188s3.883 8.144 9.559 10.994h1.933s1.559 33.227 1.934 34.9c0 0-1.139-.102-.297 1.963.842 2.065 6.097 2.908 6.097 2.908s26.227 4.755 37.329.102l3.118-1.294s1.809-3.883 1.388-5.046a46.528 46.528 0 00-4.163-5.686s8.529-23.267 8.529-32.588c-.06-5.878-2.519-11.515-6.876-15.763-4.164-3.62-17.605-9.306-17.605-9.306l-14.048.072z" fill="#68E1FD"/><path d="M394.054 88.187l.218 4.813s.796 4.77 8.498 3.795c0 0 5.957-1.629 5.676-5.046 0-.916-.779-9.96-.779-9.96" fill="#F2C3BD"/><path d="M391.591 73.31a4.691 4.691 0 01-1.701-.38 4.411 4.411 0 01-1.41-.967 4.08 4.08 0 01-.899-1.4 3.863 3.863 0 01-.247-1.615c.093-3.97 2.666-5.947 4.88-5.947 2.215 0 1.778-4.057 8.779-3.389 7.001.67 8.061 2.909 8.061 2.909s5.941.741 6.924 5.816c.982 5.075-2.215 10.18-3.275 10.587-1.06.407-.265 3.228-2.479 5.205-1.435 1.207-3.292 1.884-5.224 1.905" fill="#4D4030"/><path d="M390.25 71.842c.183 1.644.183 3.3 0 4.944-.343 1.643-2.589 10.048 4.989 15.152 0 0 7.578 1.047 11.367-7.27 0 0 1.31-10.616-.467-11.983-1.778-1.367-2.168 2.05-5.396 1.367-3.227-.683-7.546-3.286-10.493-2.21z" fill="#F2C3BD"/><path d="M407.215 76.844c-1.15.773-1.946 1.92-2.23 3.214a.975.975 0 00-.531.19.868.868 0 00-.315.442.817.817 0 00.018.53c.065.171.185.319.344.423 1.045.669 2.667 0 3.602-.582a3.433 3.433 0 001.335-1.282 3.126 3.126 0 00.427-1.742 1.577 1.577 0 00-.319-.747 1.746 1.746 0 00-.662-.516 1.868 1.868 0 00-1.669.07z" fill="#F2C3BD"/><path d="M407.09 76.786s-1.107 5.148-1.949 5.7c-.842.553-2.573 2.56-4.054 2.21a2.525 2.525 0 01-.718-.348 11.75 11.75 0 00-5.036-2.342c-2.23-.174-4.257.51-4.818-.087a5.579 5.579 0 01-.827-2.138s-.124 5.817.609 7.766a6.76 6.76 0 002.113 3.393 7.562 7.562 0 003.765 1.755 9.27 9.27 0 004.884-.468c1.546-.59 2.877-1.584 3.832-2.862 2.604-3.65 2.604-11.3 2.604-11.3l-.405-1.279z" fill="#4D4030"/><path style="mix-blend-mode:multiply" opacity=".63" d="M157.327 192.479l-59.002 27.44 29.033 18.322 51.051-27.352c-9.98-6.006-11.04-12.535-21.082-18.41z" fill="url(#paint2_linear)"/><path d="M173.949 128.772s.998 22.656 1.559 29.607c.562 6.951.265 39.189.265 39.189a14.352 14.352 0 01-6.938.844c-4.21-.422-8.28-32.544-8.233-36.907.046-4.362-6.44-28.05-6.471-37.706-.031-9.656 5.083-21.1 12.973-19.835 7.89 1.265 6.845 24.808 6.845 24.808z" fill="#EFB497"/><path d="M155.534 138.297s-1.122 22.656-1.232 29.621c-.109 6.966-2.806 37.285-2.806 37.285a23.536 23.536 0 01-9.2.712s-3.274-30.726-2.962-36.79c.218-4.362-3.961-27.774-3.119-37.386.842-9.612 7.048-20.606 14.782-18.701 7.734 1.905 4.537 25.259 4.537 25.259z" fill="#FFC8A9"/><path d="M181.901 208.737c-3.477-3.97-5.551-13.088-5.551-13.088s.141-.174-.265-.625a3.976 3.976 0 01-1.649 1.696 4.397 4.397 0 01-2.389.529c-3.649-.262-3.633-4.537-6.487-5.424-.156.276-.296.581-.467.93-1.388 2.909-.297 19.544-.297 19.544l4.896 2.24-.467-5.323s1.294 2.821 2.604 5.817c1.309 2.996 5.784 4.435 10.493 6.369 4.709 1.934 7.189.437 8.296-2.908 1.107-3.345-5.239-5.802-8.717-9.757z" fill="#473E39"/><path d="M175.601 152.751c1.17-31.817 1.949-62.965 1.949-62.965s-28.893-13.334-36.86-6.776a92.856 92.856 0 00-5.302 27.062c-.483 7.881-.842 26.829-.889 47.26 13.815 6.558 29.876 5.7 41.102-4.581z" fill="#847066"/><path d="M179.641 74.212a88.215 88.215 0 015.005-14.309c3.461-8.361 5.925-16.635 5.348-25.462a4.917 4.917 0 00-1.154-2.516c-4.958-4.9-15.811-3.766-15.811-3.766a32.471 32.471 0 00-4.49 0 .754.754 0 01-.208.536.86.86 0 01-.541.264c-12.474 1.308-16.419 13.843-18.072 23.732-1.122 6.718-1.356 13.654-3.96 20.081a71.41 71.41 0 01-5.099 9.772c3.586 2.473 19.803 12.535 36.362 5.526.92-4.566 1.575-9.248 2.62-13.858z" fill="#A2C609"/><path d="M188.014 31.227s9.964 7.082 8.311 26.597c0 0-9.481 2.196-12.786 2.181" fill="#A2C609"/><path d="M155.02 64.964l-4.382-17.857-1.169 4.362a.757.757 0 010 .233c-.655 4.813-2.822 13.873-3.025 15.283l-1.014 7.954 9.044-6.253.546-3.722z" fill="#89A000"/><path d="M187.827 22.168v.087c-.403.19-.734.49-.951.858-1.7 2.792-3.306 5.642-4.865 8.492a10.203 10.203 0 01-3.54-1.294c-1.855-1.034-3.404-2.484-4.506-4.217l1.996-9.06 11.866 5.134z" fill="#F9B495"/><path d="M198.04 10.098c.265.582-8.374 19.733-12.958 18.046-4.584-1.686-11.086-9.263-8.716-16.999 2.37-7.736 18.009-9.263 21.674-1.047z" fill="#FFC8A9"/><path d="M190.524.617c-27.147-6.718-38.42 43.625-38.42 43.625 2.199-10.717 13.332-14.847 13.332-14.847l.187 16.127c4.085-2.4 10.229-2.08 13.113-5.323l.281-19.005s-3.243-5.439-.234-5.817c3.009-.378 3.539 2.908 3.539 2.908l2.651-6.209 13.192 4.959s8.95-12.317-7.641-16.418z" fill="#8E4228"/><path d="M157.499 215.411c-3.477-3.97-5.551-13.087-5.551-13.087s.14-.175-.265-.626a3.971 3.971 0 01-1.634 1.739 4.396 4.396 0 01-2.405.559c-3.648-.262-3.633-4.537-6.486-5.424-.156.276-.296.581-.468.93-1.388 2.909-.296 19.544-.296 19.544l4.896 2.24-.468-5.322s1.294 2.821 2.604 5.816c1.31 2.996 5.785 4.435 10.494 6.369 4.709 1.934 7.188.437 8.295-2.908 1.107-3.345-5.239-5.86-8.716-9.83z" fill="#473E39"/><path d="M329.579 294.648l37.859-18.351v-43.029l-37.859 20.547v40.833zM285.234 228.12l43.955 23.718-.468.756 37.937-20.576-44.423-23.965-37.001 20.067zM322.234 206.366l37.672-20.431-39.402-21.231-37.625 20.417 39.355 21.245zM368.202 231.13l37.734-20.358c-.219-.145-.437-.291-.671-.421l-43.737-23.558-37.672 20.446 44.346 23.891zM276.704 141.133l-27.879-15.007a16.235 16.235 0 00-7.687-1.921c-2.699 0-5.35.662-7.688 1.921l-30 16.155 35.645 19.239 37.609-20.387zM242.775 206.89l-1.684.901v39.888l41.897 22.597v-41.69l-40.213-21.696zM279.776 185.135l-40.634-21.928-37.017 20.067 40.634 21.929 37.017-20.068zM328.098 252.928l-43.55-23.499v41.691l43.472 23.455v-41.603l.078-.044zM283.69 227.291l37.001-20.082-39.371-21.245-37.001 20.082 39.371 21.245z" fill="#68E1FD"/><path d="M241.216 206.046l-40.183-21.681v41.69l38.499 20.78v-39.873l1.684-.916z" fill="#68E1FD"/><path d="M199.49 183.521l-34.039-18.366.78-1.265 34.304 18.541 37.001-20.068-35.676-19.253-34.335 18.512c-2.135 1.146-3.749 2.979-4.539 5.155a8.85 8.85 0 00.251 6.667v6.34a9.063 9.063 0 000 .989v24.895l36.253 19.559v-41.706zM281.32 184.292l37.625-20.416-40.681-21.9-37.578 20.387 40.634 21.929zM284.547 272.807v31.846h-1.559v-32.69l-41.897-22.612v33.14l80.349 44.919a20.735 20.735 0 006.58 2.283v-33.445l-43.473-23.441zM367.423 277.94l-37.891 18.337v33.634c4.244.433 8.525-.418 12.209-2.428l27.116-14.92h-1.434V277.94zM368.982 312.563l31.544-17.319c2.351-1.292 4.318-3.111 5.723-5.292a14.53 14.53 0 002.322-7.199l1.185-25.317-40.774 19.748v35.379zM410.739 230.912l-.406-12.186a8.944 8.944 0 00-.777-3.807 9.511 9.511 0 00-2.341-3.202l-38.233 20.708v43.115l40.852-19.791.889-24.837M201.033 227.742v32.283h-.14l38.639 21.594v-33.111l-38.499-20.766zM163.237 207.34v24.721a11.577 11.577 0 001.702 6.016c1.115 1.835 2.72 3.369 4.66 4.454l29.891 16.708v-32.34l-36.253-19.559zM329.579 294.648l37.859-18.351v-43.029l-37.859 20.547v40.833zM285.234 228.12l43.955 23.718-.468.756 37.937-20.576-44.423-23.965-37.001 20.067zM322.234 206.366l37.672-20.431-39.402-21.231-37.625 20.417 39.355 21.245zM368.202 231.13l37.734-20.358c-.219-.145-.437-.291-.671-.421l-43.737-23.558-37.672 20.446 44.346 23.891zM276.704 141.133l-27.879-15.007a16.235 16.235 0 00-7.687-1.921c-2.699 0-5.35.662-7.688 1.921l-30 16.155 35.645 19.239 37.609-20.387zM242.775 206.89l-1.684.901v39.888l41.897 22.597v-41.69l-40.213-21.696z" fill="#68E1FD"/><path d="M279.776 185.135l-40.634-21.928-37.017 20.067 40.634 21.929 37.017-20.068zM328.098 252.928l-43.55-23.499v41.691l43.472 23.455v-41.603l.078-.044zM283.69 227.291l37.001-20.082-39.371-21.245-37.001 20.082 39.371 21.245zM241.216 206.046l-40.183-21.681v41.69l38.499 20.78v-39.873l1.684-.916zM201.906 143.11l-34.381 18.512a10.004 10.004 0 00-2.277 1.716c.304.211.622.406.951.581l34.304 18.541 37.032-20.097-35.629-19.253zM281.32 184.292l37.625-20.416-40.681-21.9-37.578 20.387 40.634 21.929zM284.548 272.807v31.846h-.234v2.021l37.095 20.736a20.735 20.735 0 006.58 2.283v-33.445l-43.441-23.441zM282.755 301.963a.638.638 0 01.202-.48v-29.52l-41.897-22.612v33.14l41.695 23.267v-3.795zM367.423 277.94l-37.891 18.337v33.634c4.244.433 8.525-.418 12.209-2.428l27.116-14.92h-1.434V277.94zM368.982 312.563l31.544-17.319c2.351-1.292 4.318-3.111 5.723-5.292a14.53 14.53 0 002.322-7.199l1.185-25.317-40.774 19.748v35.379zM410.739 230.912l-.406-12.186a8.944 8.944 0 00-.777-3.807 9.511 9.511 0 00-2.341-3.202l-38.233 20.708v43.115l40.852-19.791.889-24.837M201.033 227.742v32.283h-.14l38.639 21.594v-33.111l-38.499-20.766zM163.237 207.34v24.721a11.577 11.577 0 001.702 6.016c1.115 1.835 2.72 3.369 4.66 4.454l29.891 16.708v-32.34l-36.253-19.559z" fill="#68E1FD"/><path d="M282.988 304.653h1.559v-31.846l-1.559-.844v32.69zM285.234 228.12l37.001-20.067-1.544-.843-37.001 20.082 1.544.828zM282.988 228.586v41.69l1.559.844v-41.691l-1.559-.843zM323.794 207.21l37.672-20.446-1.56-.829-37.671 20.431 1.559.844zM282.879 185.121l37.625-20.417-1.559-.828-37.625 20.416 1.559.829zM239.532 248.508v33.111l1.559.872v-33.14l-1.559-.843zM242.775 206.889l-1.559-.843-1.684.916v39.873l1.559.844v-39.888l1.684-.902zM244.319 206.046l37.001-20.082-1.544-.829-37.017 20.068 1.56.843zM199.474 260.025h1.419l-1.419-.8v.8zM239.142 163.207l-1.559-.844-37.001 20.082 1.543.829 37.017-20.067zM240.685 162.363l37.578-20.387-1.559-.843-37.578 20.387 1.559.843z" fill="#FFEED9"/><path d="M201.034 227.742l-1.56-.843v32.326l1.419.8h.141v-32.283zM201.034 184.365l-1.56-.844v41.691l1.56.844v-41.691z" fill="#FFEED9"/><path d="M242.759 205.203l-40.634-21.929-1.092.596v.495l40.183 21.681 1.543-.843zM284.548 229.429l43.55 23.499.312-.16.311-.174.468-.756-43.955-23.718-.686.378v.931zM283.69 227.291l-39.371-21.245-1.544.843 40.213 21.697v-.931l.702-.364zM200.582 182.445l-34.367-18.54-.779 1.25 34.038 18.366v-.494l1.108-.582z" fill="#FFEED9"/><path d="M282.988 227.655v.931l1.559.843v-.931l.686-.378-1.544-.829-.701.364zM242.759 205.203l-1.543.844 1.559.843 1.544-.843-1.56-.844zM201.034 183.871l1.091-.597-1.544-.829-1.107.582v.495l1.56.844v-.495zM327.973 330.014h1.559c-.53 0-1.044-.131-1.559-.219v.219zM328.784 296.669l-.375-.203-.389-.204v33.446c.514.087 1.029.174 1.559.218v-33.649l-.795.392zM328.409 253.103l-.312-.175-.077.044v41.603l.795.437.764-.364v-40.833l37.859-20.547v-.829l-.78-.421-37.937 20.576-.312.509zM368.982 231.596v.843l38.186-20.722c-.384-.344-.796-.66-1.232-.945l-37.734 20.358.78.466z" fill="#FFEED9"/><path d="M328.098 252.929l.312.174.311-.509-.311.175-.312.16zM368.999 312.623v-.074l-.142.074h.142zM239.126 161.52l-35.66-19.253-1.56.843 35.676 19.253 1.544-.843zM367.438 277.94v34.681h1.419l.14-.072v-35.365l-1.559.756zM320.691 207.209l1.544-.843-39.356-21.245-1.559.843 39.371 21.245zM367.438 276.297l1.559-.756v-43.116l-1.559.843v43.029zM279.776 185.135l1.544-.843-40.634-21.929-1.544.844 40.634 21.928zM366.658 232.017l1.544-.843-44.408-23.964-1.559.843 44.423 23.964z" fill="#FFEED9"/><path d="M322.235 208.054l1.559-.844-1.559-.844-1.544.844 1.544.844zM281.32 185.965l1.559-.844-1.559-.829-1.544.844 1.544.829zM240.685 162.364l-1.559-.844-1.543.844 1.559.844 1.543-.844zM368.202 231.174l-1.543.844.779.422v.829l1.56-.844v-.829l-.796-.422zM199.474 225.212l-36.237-19.558v1.686l36.237 19.559v-1.687zM329.579 294.648v1.629l37.859-18.337v-1.643l-37.859 18.351zM368.997 277.184l40.759-19.762.078-1.673-40.837 19.791v1.644zM201.033 226.055v1.687l38.499 20.766v-1.673l-38.499-20.78zM284.548 271.12v1.687l43.472 23.455v-1.687l-43.472-23.455zM241.091 247.679v1.672l41.897 22.612v-1.687l-41.897-22.597zM282.988 270.276v1.687l1.559.844v-1.687l-1.559-.844zM239.532 246.835v1.673l1.559.843v-1.672l-1.559-.844z" fill="#FFEED9"/><path d="M199.474 225.212v1.687l1.56.843v-1.687l-1.56-.843zM328.815 295.012l-.795-.437v1.687l.389.204.375.203.795-.392v-1.629l-.764.364zM367.438 277.94l1.559-.756v-1.644l-1.559.757v1.643z" fill="#FFEED9"/><path d="M304.038 144.012v33.998l28.441 15.167 32.09-17.683v-33.998" fill="#68E1FD"/><path d="M304.038 144.012l32.994-17.508 27.537 14.992-32.09 17.683-28.441-15.167z" fill="#68E1FD"/><path opacity=".21" d="M304.038 144.012l32.994-17.508 27.537 14.992-32.09 17.683-28.441-15.167z" fill="#fff"/><path d="M332.479 159.179v33.998l32.089-17.683v-33.998l-32.089 17.683z" fill="#68E1FD"/><path d="M409.554 122.534s-3.696 6.762-5.848 8.608c-2.151 1.847-25.244 11.532-27.38 12.303-2.136.77-2.48 1.454-3.633 1.236-1.154-.218-11.211-.16-11.71.77a2.478 2.478 0 000 2.007s-3.119 1.687-2.48 3.388c.64 1.702 2.308 6.006 5.115 6.006 2.806 0 9.075-4.93 9.574-6.151 0 0 25.712-2.007 36.362-7.533 10.649-5.525 12.302-13.087 12.302-13.087-1.014-2.256-2.725-4.179-4.917-5.524a13.895 13.895 0 00-7.385-2.023z" fill="#F2C3BD"/><path d="M173.2 81.105v33.998l28.426 15.167 32.105-17.683V78.589" fill="#68E1FD"/><path d="M173.2 81.105l32.994-17.508 27.537 14.992-32.105 17.697L173.2 81.105z" fill="#68E1FD"/><path opacity=".21" d="M173.2 81.105l32.994-17.508 27.537 14.992-32.105 17.697L173.2 81.105z" fill="#fff"/><path d="M201.626 96.286v33.984l32.105-17.683V78.589l-32.105 17.697z" fill="#68E1FD"/><path d="M162.987 56.108s.156 11.386 2.168 15.167c2.011 3.78 11.819 22.975 12.286 23.266.468.291 9.107 4.523 7.968 6.02-1.138 1.498-6.237-1.017-6.237-1.017s6.237 9.015 3.727 10.629c-2.511 1.615-13.269-7.27-13.332-9.917-.062-2.647-.327-6.558-.327-6.558s-15.718-19.762-16.934-23.107c-1.216-3.344-2.089-16.243-2.089-16.243s7.063-3.533 12.77 1.76z" fill="#FFC8A9"/><path d="M163.814 45.565l1.122 15.996c-1.559-.262-14.797.974-15.062.61-.265-.363.764-15.064.764-15.064" fill="#A2C609"/><defs><linearGradient id="paint0_linear" x1="213.554" y1="315.617" x2="241.083" y2="271.953" gradientUnits="userSpaceOnUse"><stop stop-color="#fff" stop-opacity="0"/><stop offset=".99" stop-color="#754C24"/></linearGradient><linearGradient id="paint1_linear" x1="22046" y1="7278.7" x2="22314.8" y2="6482.57" gradientUnits="userSpaceOnUse"><stop stop-color="#fff" stop-opacity="0"/><stop offset=".99" stop-color="#754C24"/></linearGradient><linearGradient id="paint2_linear" x1="7088.02" y1="8708.85" x2="7857.92" y2="7229.77" gradientUnits="userSpaceOnUse"><stop stop-color="#fff" stop-opacity="0"/><stop offset=".99" stop-color="#754C24"/></linearGradient></defs></svg>