<svg width="526" height="397" fill="none" xmlns="http://www.w3.org/2000/svg"><path d="M255.22 379.572L19.4 240.115c-7.506-4.215-13.948-11.134-6.627-15.69L249.447 87.882c3.556-2.205 8.949-3.65 12.557-1.549L509.556 230.15c7.505 4.358 8.857 16.542 1.312 20.914L286.345 379.349a31.344 31.344 0 01-31.125.223z" fill="#759C31"/><path style="mix-blend-mode:multiply" opacity=".63" d="M344.145 311.301l-36.36 18.971 15.536 10.753 35.769-20.875c-3.031-1.97-11.875-6.932-14.945-8.849z" fill="url(#paint0_linear)"/><path style="mix-blend-mode:multiply" opacity=".63" d="M115.568 222.416l-29.445 15.361 12.583 8.744 27.556-18.144c-2.48-1.589-8.201-4.385-10.694-5.961z" fill="url(#paint1_linear)"/><path style="mix-blend-mode:multiply" opacity=".63" d="M241.967 254.714l-64.741 31.063 56.002 32.731 55.741-33.597c-11.81-7.668-35.035-22.714-47.002-30.197z" fill="url(#paint2_linear)"/><path d="M289.717 254.74s6.653 7.877 7.269 12.105c.617 4.228.158 25.142-36.74 24.945-36.898-.197-34.483-22.49-33.867-24.183.617-1.694 8.372-14.219 8.372-14.219" fill="#FA6C00"/><path d="M261.912 274.579c15.726 0 28.474-7.312 28.474-16.332 0-9.021-12.748-16.333-28.474-16.333-15.725 0-28.474 7.312-28.474 16.333 0 9.02 12.749 16.332 28.474 16.332z" fill="#F7DD02"/><path d="M298.154 213.082c10.379-7.352 26.243 4.858 37.305 5.252 7.518.289 13.121-2.823 15.929-9.952 1.155-2.967 2.756-7.51 2.624-10.766-.157-4.359-3.726-7.011-6.718-9.584-9.316-8.022-22.91-10.95-30.678-20.626-3.661-4.569 2.795-11.107 6.495-6.499 6.863 8.56 19.551 11.685 28.107 18.499 4.054 3.23 8.935 7.037 10.956 11.974 2.021 4.936.564 11.028-.853 16.057-2.808 10.004-8.962 18.013-19.682 19.693a38.487 38.487 0 01-15.667-1.129c-3.504-.906-6.902-2.179-10.327-3.308-1.522-.499-3.057-.998-4.606-1.418a29.984 29.984 0 00-2.335-.591c-2.065-.875-3.163.368-3.294 3.729 5.8 1.142 3.346 10.004-2.44 8.862-9.487-1.851-13.188-14.219-4.816-20.193zM181.634 79.926c6.01 1.64 11.967 6.394 17.059 9.794 5.563 3.729 10.904 7.733 16.152 11.882 4.632 3.676-1.902 10.135-6.495 6.499a195.112 195.112 0 00-24.262-16.753c-2.112-1.208-4.933-4.057-7.282-1.589-1.391 1.458-1.221 4.819-1.168 6.565a43.97 43.97 0 003.005 13.339c6.364 17.409 20.338 30.551 33.42 43.05 4.278 4.097-2.217 10.582-6.495 6.499-17.438-16.661-37.317-36.249-39.076-61.85-.616-8.968 4.265-20.417 15.142-17.436z" fill="#FA6C00"/><path d="M268.827 227.799s-1.154 11.016 2.507 17.79a81.812 81.812 0 006.377 10.241s.971 11.015-16.232 11.015c-17.202 0-14.302-10.634-14.302-10.634a34.026 34.026 0 006.18-28.425" fill="#FEC617"/><path d="M247.19 256.211a34.026 34.026 0 006.18-28.425h5.249c-.341 13.129.367 28.556 8.778 38.534-1.929.364-3.889.54-5.852.525-17.255 0-14.355-10.634-14.355-10.634z" fill="#FFA407"/><path d="M323.085 119.169v46.897s-.8 64.096-61.304 64.096c-60.503 0-58.614-64.608-58.614-64.608v-46.385" fill="#FEC617"/><path d="M203.115 165.541v-46.372h34.68c-.289 30.197 1.404 63.676 20.994 87.663a86.028 86.028 0 0024.183 20.193 68.038 68.038 0 01-21.191 3.137c-60.543-.013-58.666-64.621-58.666-64.621z" fill="#FFA407"/><path d="M263.067 154.525c33.111 0 59.952-15.83 59.952-35.357s-26.841-35.357-59.952-35.357-59.952 15.83-59.952 35.357 26.841 35.357 59.952 35.357z" fill="#F7DD02"/><path d="M261.728 146.215c27.618 0 50.007-12.526 50.007-27.978 0-15.452-22.389-27.978-50.007-27.978-27.617 0-50.006 12.526-50.006 27.978 0 15.452 22.389 27.978 50.006 27.978z" fill="#FA6C00"/><path d="M312.588 179.328s.603-7.576 0-8.088c-.604-.512-1.719 1.313-1.811 2.416 0 0-1.037-2.324-1.89-2.061-.852.262-4.815 2.625-4.736 4.477.078 1.851 4.907 7.234 4.907 7.234M386.502 163.835s-3.937-3.269-3.53-4.385c.407-1.116 2.624 1.536 2.624 1.536s-.945-4.188.171-4.622c1.115-.433 5.248-.984 5.694-.183.447.8-.708 7.654-.708 7.654" fill="#EEA7B7"/><path d="M348.226 265.309s2.795 15.82 3.293 21.742c.499 5.921.656 21.518.656 21.518a5.382 5.382 0 006.404 2.468 139.872 139.872 0 001.64-24.144c-.499-11.002.079-26.613.079-26.613l-12.072 5.029zM362.45 261.593s2.795 8.876 5.747 10.504c2.952 1.628 30.586 9.4 38.787 18.591 0 0 5.748-1.195 5.419-4.871 0 0-6.56-5.974-13.79-11.226-7.23-5.251-21.402-7.221-22.11-8.376-.709-1.155-1.85-16.228-1.85-16.228" fill="#FFB288"/><path d="M370.323 203.511s17.058 18.223 5.786 60.761c0 0-14.342 5.252-27.909 1.051 0 0-11.915-37.602 1.469-57.033" fill="#335A6B"/><path d="M358.894 171.055c0-.473 1.089-3.073-.801-4.136-1.889-1.064-9.697-1.116-9.697.63s1.313 3.821 0 4.608c-1.312.788-6.836.473-8.896 2.39-2.06 1.917-14.788 20.048-18.278 18.617-3.491-1.431-8.123-15.387-8.123-15.387l-5.76 4.096s1.115 17.974 9.539 21.794c8.425 3.821 28.146-13.523 28.146-13.523s5.249 13.051 4.632 18.132c-.617 5.081 21.231 2.126 20.64-4.766-.643-7.458 1.431-19.248 1.431-19.248s18.278 7.799 24.012 1.747c5.734-6.053-4.422-23.698-4.422-23.698l-5.406 1.431s4.133 13.365 1.903 14.31c-2.231.946-13.804-7.798-20.339-8.113-6.534-.316-8.581 1.116-8.581 1.116z" fill="#68E1FD"/><path d="M352.149 307.217s-1.312 4.884-3.936 4.096c-2.625-.788-5.328-2.705-6.325-1.707-.997.998-1.824 2.324-.498 3.821 1.325 1.497 8.634 5.567 8.634 5.567l4.566-4.162s.249 6.564.748 6.643c.498.079 3.49.079 3.739-1.313.25-1.392 0-12.236 0-12.236l-6.928-.709zM406.984 290.688s2.362 1.562 1.194 3.636c-1.167 2.075-4.645 4.412-4.408 5.488.236 1.077 1.417 3.243 2.991 2.626 1.575-.617 4.239-1.917 4.816-3.072s.669-7.877 1.312-8.232c.643-.354 4.816 4.569 5.485 4.162.669-.407 3.07-2.744 2.624-3.322-.446-.577-8.647-6.183-8.647-6.183l-3.215-2.823-4.881 5.251 2.729 2.469z" fill="#4501A4"/><path d="M344.893 159.212s-3.818-3.256-2.965-6.787a10.127 10.127 0 0111.809-6.933c6.784 1.13 12.006 7.642 11.731 17.672-.276 10.031-15.746 5.843-15.746 5.843" fill="#A0421D"/><path d="M344.329 152.424s-1.129 15.978 2.401 16.963c3.53.984 5.931-3.388 5.931-3.388l.709-2.967s3.529-3.256.984-4.241a3.046 3.046 0 00-3.819 1.313s-1.128-3.256-2.965-2.402c-1.837.853-3.241-5.278-3.241-5.278z" fill="#FFB288"/><path d="M127.495 141.91c.827 1.129.866 6.091 0 6.63-.866.538-1.85-.433-1.85-.433s-.538 3.045-1.417 3.045-6.627-2.822-6.298-5.33c.328-2.508 3.359-7.589 3.359-7.589M195.963 49.112s.237-6.263 1.024-6.433c.787-.17 1.22 2.087 1.312 1.825.092-.263 1.391-6.42 2.624-6.565 1.234-.144 0 5.567 0 5.567s4.514.867 4.777 2.626c.262 1.76-5.551 6.341-5.551 6.341" fill="#FFBB8F"/><path d="M175.205 215.156s.275 5.16 3.057 7.103c2.782 1.943 6.404 2.507 7.873 5.435a5.255 5.255 0 01-.695 5.567 16.741 16.741 0 01-10.301-1.956c-5.563-2.928-8.214-4.595-10.156-5.016-1.942-.42-.105-11.921-.105-11.921l10.327.788z" fill="#341A0C"/><path d="M167.87 87.187s5.17-3.099 7.571-6.565c2.402-3.466 20.522-31.51 20.522-31.51s4.619 0 5.918 2.035c1.299 2.035-15.523 40.11-20.706 43.996-5.183 3.886 0 46.228-2.624 50.114-2.624 3.886-22.49 7.785-27.673-.906l-3.937-23.869s-17.373 18.499-18.672 22.556c0 0-5.353-.184-7.02-4.805-1.666-4.622 25.141-41.423 29.76-45.86 4.619-4.438 16.861-5.186 16.861-5.186z" fill="#68E1FD"/><path d="M172.41 78.6s6.351-2.744 4.645-6.854c-1.706-4.11-7.689-7.352-15.746-3.768-8.056 3.584-6.836 7.523-5.642 11.633 1.194 4.109 3.202 7.575 4.461 7.575 1.26 0 4.816-4.28 4.816-4.28" fill="#341A0C"/><path d="M171.925 74.819c.984-.342 1.023 16.595-4.96 16.083-5.984-.512-6.561-6.84-6.561-6.84s-4.107-2.39-2.742-4.11c1.364-1.72 4.107 0 4.107 0l1.023-5.133s2.638 2.231 9.133 0z" fill="#FFBB8F"/><path d="M178.59 145.256s10.996 26.482 9.304 34.386c-1.693 7.903-12.138 39.531-12.138 39.531s-11.192-1.418-10.812-4.805c.381-3.387 6.915-33.518 5.839-37.142-1.417-4.779-5.327-18.197-5.839-15.374-.512 2.822-4.999 17.159-8.7 21.676-3.7 4.516-31.491 26.324-31.491 26.324s-8.188-5.935-7.335-8.469c.853-2.533 20.614-16.24 23.986-24.275 2.467-5.869 9.592-32.757 9.592-32.757" fill="#335A6B"/><path d="M124.674 209.851a64.173 64.173 0 00-1.955 7.103c-.42 2.508 1.312 7.247 2.624 8.219 1.312.971 1.115 2.928-.695 4.175-1.811 1.247-7.243.551-9.185-1.392-1.942-1.943-.42-5.606-1.956-8.796-1.535-3.191-5.576-9.283 4.029-16.333" fill="#341A0C"/><path d="M231.221 155.511l5.537 17.238 13.056 9.112-9.999 6.643 2.166 16.241-11.561-13.471-11.875 1.274 2.585-14.455-9.237-15.991 13.148 4.542 6.18-11.133z" fill="#FFAD4A"/><path d="M237.349 208.014l4.632-3.269-7.453-21.689-3.307-27.545-4.632 3.269-4.435 9.82-10.261-6.498-4.632 3.269" fill="#FFAD4A"/><path d="M226.589 158.779l5.537 17.239 13.056 9.111-9.723 6.105 1.89 16.779-11.56-13.47-11.875 1.274 2.585-14.456-9.238-15.991 13.161 4.543 6.167-11.134z" fill="#FFE14D"/><path d="M281.857 162.994s2.913 16.096-13.004 16.096c0 0 12.676 3.847 13.017 12.381 0 0 3.228-12 12.885-12 0-.039-12.898-.262-12.898-16.477zM211.919 129.488s1.785 9.86-7.991 9.86c0 0 7.781 2.363 7.991 7.615 0 0 1.981-7.378 7.873-7.378.052.013-7.873-.132-7.873-10.097z" fill="#fff"/><path d="M328.465 65.182s3.53 19.444-15.746 19.444c0 0 15.339 4.648 15.746 15.006 0 0 3.936-14.534 15.614-14.534 0 0-15.614-.275-15.614-19.916zM261.637 38.255s2.913 16.11-13.004 16.11c0 0 12.676 3.846 13.017 12.38 0 0 3.228-12 12.885-12 0-.052-12.898-.276-12.898-16.49z" fill="#FEC617"/><path style="mix-blend-mode:multiply" opacity=".63" d="M167.529 223.257l-49.6 25.877 21.192 14.679 46.384-30.552c-4.133-2.678-13.79-7.391-17.976-10.004z" fill="url(#paint3_linear)"/><defs><linearGradient id="paint0_linear" x1="321.891" y1="343.874" x2="340.001" y2="314.645" gradientUnits="userSpaceOnUse"><stop stop-color="#fff" stop-opacity="0"/><stop offset=".99" stop-color="#754C24"/></linearGradient><linearGradient id="paint1_linear" x1="3036.33" y1="4748.37" x2="3234.8" y2="4214.82" gradientUnits="userSpaceOnUse"><stop stop-color="#fff" stop-opacity="0"/><stop offset=".99" stop-color="#754C24"/></linearGradient><linearGradient id="paint2_linear" x1="18433.8" y1="15478" x2="19454.5" y2="12590.3" gradientUnits="userSpaceOnUse"><stop stop-color="#fff" stop-opacity="0"/><stop offset=".99" stop-color="#754C24"/></linearGradient><linearGradient id="paint3_linear" x1="7096.51" y1="8411.07" x2="7658.28" y2="6898.8" gradientUnits="userSpaceOnUse"><stop stop-color="#fff" stop-opacity="0"/><stop offset=".99" stop-color="#754C24"/></linearGradient></defs></svg>